<?xml version="1.0" standalone="no"?>
<!DOCTYPE svg PUBLIC "-//W3C//DTD SVG 1.1//EN" "http://www.w3.org/Graphics/SVG/1.1/DTD/svg11.dtd" >
<svg xmlns="http://www.w3.org/2000/svg">
<metadata></metadata>
<defs>
<font id="glametrixbold" horiz-adv-x="860" >
<font-face units-per-em="2048" ascent="1434" descent="-614" />
<missing-glyph horiz-adv-x="368" />
<glyph unicode="gj" horiz-adv-x="696" d="M0 0v696h696v-696h-696z" />
<glyph horiz-adv-x="2048" />
<glyph horiz-adv-x="2048" />
<glyph unicode="&#xd;" horiz-adv-x="2048" />
<glyph unicode=" "  horiz-adv-x="368" />
<glyph unicode="&#x09;" horiz-adv-x="368" />
<glyph unicode="&#xa0;" horiz-adv-x="368" />
<glyph unicode="!" horiz-adv-x="368" d="M102 -10v131q0 15 4 18.5t19 3.5h151v-131q0 -15 -3.5 -18.5t-18.5 -3.5h-152zM102 287v696h174v-696h-174z" />
<glyph unicode="&#x22;" horiz-adv-x="532" d="M82 717v266h133v-266h-133zM317 717v266h134v-266h-134z" />
<glyph unicode="#" horiz-adv-x="819" d="M61 276v109h134v213h-134v109h134v215h108v-215h213v215h109v-215h133v-109h-133v-213h133v-109h-133v-215h-109v215h-213v-215h-108v215h-134zM303 385h213v213h-213v-213z" />
<glyph unicode="$" horiz-adv-x="716" d="M82 180v160q124 -88 246 -88q78 0 126 23.5t48 62.5q0 31 -38.5 50.5t-115.5 39.5q-45 12 -75 21.5t-69.5 28t-63.5 40t-41 54.5t-17 73q0 165 215 197v182h143v-174q83 -3 164 -23v-163q-93 67 -215 67q-69 0 -111 -21t-42 -55q0 -11 4.5 -20t16.5 -17t22 -13.5 t32 -12.5t34 -11t40 -11q49 -13 75.5 -21t69.5 -27.5t66 -40t41 -55.5t18 -78q0 -74 -57 -127.5t-158 -74.5v-187h-143v174q-102 4 -215 47z" />
<glyph unicode="%" horiz-adv-x="1466" d="M61 741q0 113 75.5 182.5t197.5 69.5t197 -69.5t75 -182.5t-75 -182.5t-197 -69.5t-197.5 69.5t-75.5 182.5zM195 741q0 -72 38 -115.5t101 -43.5t101 43.5t38 115.5t-38 116t-101 44t-101 -44t-38 -116zM275 63l790 942l102 -85l-790 -942zM860 242q0 113 75.5 182.5 t197.5 69.5t197 -69.5t75 -182.5t-75 -182.5t-197 -69.5t-197.5 69.5t-75.5 182.5zM993 242q0 -72 38.5 -116t101.5 -44t101 44t38 116t-38 115.5t-101 43.5t-101.5 -43.5t-38.5 -115.5z" />
<glyph unicode="&#x26;" horiz-adv-x="1044" d="M41 256q0 152 262 301q-92 111 -92 211q0 101 68 163t178 62q103 0 166 -59t63 -156h-137q0 44 -25.5 71.5t-68.5 27.5q-48 0 -77.5 -30t-29.5 -79q0 -100 125 -203l266 -216q49 106 49 224h144q0 -169 -84 -313l145 -119v-176l-224 188q-73 -77 -169 -120t-201 -43 q-161 0 -259.5 73t-98.5 193zM205 258q0 -65 53 -105t141 -40q155 0 268 126l-267 223q-111 -60 -153 -107t-42 -97z" />
<glyph unicode="'" horiz-adv-x="296" d="M82 717v266h133v-266h-133z" />
<glyph unicode="(" horiz-adv-x="471" d="M61 492q0 246 78.5 467t237.5 382l65 -51q-61 -80 -103.5 -183t-63.5 -212.5t-30 -206t-9 -196.5t9 -196.5t30 -206.5t63.5 -213t103.5 -183l-65 -51q-159 160 -237.5 382t-78.5 468z" />
<glyph unicode=")" horiz-adv-x="471" d="M29 -307q80 104 128.5 254.5t63.5 278.5t15 266q0 137 -15 265t-63.5 278.5t-128.5 254.5l65 51q159 -161 237.5 -382t78.5 -467t-78.5 -468t-237.5 -382z" />
<glyph unicode="*" horiz-adv-x="610" d="M55 755l35 109l33 -11l138 -73l-19 -58l-154 22zM115 564l21 28l112 109l49 -36l-68 -140l-21 -28zM249 948v35h115v-35l-27 -153h-62zM315 665l50 36l112 -109l20 -28l-93 -67l-20 28zM351 780l138 73l33 11l36 -109l-33 -11l-155 -22z" />
<glyph unicode="+" horiz-adv-x="737" d="M61 430v123h246v246h123v-246h246v-123h-246v-246h-123v246h-246z" />
<glyph unicode="," horiz-adv-x="368" d="M57 -180l76 166l-41 14v102q0 29 6 35t35 6h143v-84q0 -44 -38 -98l-125 -172z" />
<glyph unicode="-" horiz-adv-x="491" d="M41 389v133h410v-133h-410z" />
<glyph unicode="." horiz-adv-x="368" d="M102 -10v131q0 15 4 18.5t19 3.5h151v-131q0 -15 -3.5 -18.5t-18.5 -3.5h-152z" />
<glyph unicode="/" horiz-adv-x="870" d="M22 -66l704 1188l123 -73l-704 -1188z" />
<glyph unicode="0" horiz-adv-x="880" d="M61 492q0 226 104.5 363.5t274.5 137.5t274.5 -137.5t104.5 -363.5t-104.5 -364t-274.5 -138t-274.5 138t-104.5 364zM236 492q0 -171 56 -275t148 -104t148.5 104.5t56.5 274.5t-56.5 274t-148.5 104t-148 -104t-56 -274z" />
<glyph unicode="1" horiz-adv-x="471" d="M51 707v112q69 0 111.5 45.5t42.5 118.5h133v-983h-174v707h-113z" />
<glyph unicode="2" horiz-adv-x="727" d="M31 0q0 70 25.5 139t66 125.5t89.5 110t98.5 101.5t90 91.5t66 87.5t25.5 82q0 60 -44 96.5t-116 36.5q-65 0 -133.5 -28t-116.5 -76v164q119 63 250 63q146 0 234.5 -73t88.5 -193q0 -69 -37 -138.5t-95 -128.5t-118.5 -112.5t-119.5 -111t-86 -103.5h456v-133h-624z " />
<glyph unicode="3" horiz-adv-x="716" d="M51 16v166q83 -59 205 -59q102 0 163.5 45t61.5 119q0 88 -57 141t-150 53h-100v133h51q97 0 156 39.5t59 104.5q0 46 -51 74t-135 28q-99 0 -182 -59v166q89 26 184 26q157 0 252.5 -64.5t95.5 -170.5q0 -65 -62.5 -121t-164.5 -83q126 -24 207.5 -98t81.5 -169 q0 -134 -113 -215.5t-297 -81.5q-97 0 -205 26z" />
<glyph unicode="4" horiz-adv-x="788" d="M31 225v110l392 648h89h68h96v-635h82v-123h-82v-225h-164v225h-481zM195 348h317v524z" />
<glyph unicode="5" horiz-adv-x="747" d="M72 16v166q84 -59 219 -59q100 0 160.5 50.5t60.5 133.5t-60.5 134t-160.5 51h-189v491h523v-133h-359v-225h29q181 0 291 -87.5t110 -230.5t-110 -230t-291 -87q-119 0 -223 26z" />
<glyph unicode="6" horiz-adv-x="839" d="M61 492q0 226 117.5 363.5t310.5 137.5q79 0 187 -32v-155q-95 68 -182 68q-116 0 -187 -105t-71 -277v-5q37 77 99.5 122.5t137.5 45.5q154 0 234.5 -86.5t80.5 -251.5q0 -148 -92.5 -237.5t-244.5 -89.5q-175 0 -282.5 138t-107.5 364zM251 338q23 -105 75.5 -165 t124.5 -60q74 0 118.5 56t44.5 148q0 97 -46 156t-122 59t-132 -56t-63 -138z" />
<glyph unicode="7" horiz-adv-x="737" d="M41 850v133h676q-14 -17 -37.5 -48t-83.5 -132.5t-106 -209.5t-83.5 -270.5t-37.5 -322.5h-174q0 134 27.5 266t74.5 241.5t92.5 190t96.5 152.5h-445z" />
<glyph unicode="8" d="M51 266q0 84 63.5 153.5t166.5 101.5q-76 31 -121 89t-45 127q0 115 86.5 185.5t228.5 70.5t228.5 -70.5t86.5 -185.5q0 -69 -45 -127t-121 -89q103 -32 166.5 -101.5t63.5 -153.5q0 -124 -104.5 -200t-274.5 -76t-274.5 76t-104.5 200zM215 266q0 -69 59 -111t156 -42 t156 42t59 111q0 83 -59 134t-156 51t-156 -51t-59 -134zM258 737q0 -69 47.5 -111t124.5 -42t124.5 42t47.5 111q0 60 -47.5 96.5t-124.5 36.5t-124.5 -36.5t-47.5 -96.5z" />
<glyph unicode="9" horiz-adv-x="839" d="M51 666q0 148 93 237.5t245 89.5q175 0 282 -137.5t107 -363.5t-117.5 -364t-310.5 -138q-78 0 -186 32v155q95 -68 182 -68q116 0 187 105t71 278v4q-37 -77 -99.5 -122.5t-137.5 -45.5q-154 0 -235 86.5t-81 251.5zM225 666q0 -97 46 -156t122 -59t132.5 56t63.5 138 q-23 105 -75.5 165t-124.5 60q-74 0 -119 -56t-45 -148z" />
<glyph unicode=":" horiz-adv-x="368" d="M102 -10v131q0 15 4 18.5t19 3.5h151v-131q0 -15 -3.5 -18.5t-18.5 -3.5h-152zM102 522v131q0 15 4 19t19 4h151v-131q0 -15 -3.5 -19t-18.5 -4h-152z" />
<glyph unicode=";" horiz-adv-x="327" d="M57 -180l76 166l-41 14v102q0 29 6 35t35 6h143v-84q0 -44 -38 -98l-125 -172zM102 522v131q0 15 4 19t19 4h151v-131q0 -15 -3.5 -19t-18.5 -4h-152z" />
<glyph unicode="&#x3c;" horiz-adv-x="634" d="M41 492l512 364v-182l-274 -182l274 -183v-182z" />
<glyph unicode="=" horiz-adv-x="716" d="M61 287v133h594v-133h-594zM61 573v134h594v-134h-594z" />
<glyph unicode="&#x3e;" horiz-adv-x="634" d="M82 127v182l274 183l-274 182v182l512 -364z" />
<glyph unicode="?" horiz-adv-x="675" d="M61 780v152q116 61 238 61q142 0 228.5 -69.5t86.5 -182.5q0 -45 -18.5 -85.5t-38 -62.5t-58.5 -58q-58 -55 -89 -109.5t-31 -138.5h-174q0 109 37 176t104 129q32 30 48.5 48.5t31 47.5t14.5 60q0 60 -45.5 96.5t-120.5 36.5q-112 0 -213 -101zM205 -10v131 q0 15 3.5 18.5t18.5 3.5h152v-131q0 -15 -4 -18.5t-19 -3.5h-151z" />
<glyph unicode="@" horiz-adv-x="1392" d="M61 348q0 175 86.5 323.5t235.5 235t324 86.5q281 0 452.5 -166t171.5 -438q0 -172 -79 -276.5t-208 -104.5q-166 0 -206 160q-42 -67 -108.5 -105t-137.5 -38q-112 0 -180 77t-68 204q0 160 83.5 258t219.5 98h150l57 -74l16 74h125l-39 -457v-12q0 -37 24 -59.5 t64 -22.5q74 0 119 76.5t45 201.5q0 217 -137.5 349t-363.5 132q-142 0 -262.5 -70t-190.5 -190t-70 -262q0 -235 144 -378.5t379 -143.5q172 0 298 73l65 -107q-149 -89 -363 -89q-290 0 -468 177.5t-178 467.5zM488 311q0 -79 36.5 -127.5t96.5 -48.5q85 0 144.5 61 t68.5 156l18 201h-195q-76 0 -122.5 -66.5t-46.5 -175.5z" />
<glyph unicode="A" horiz-adv-x="942" d="M31 0l350 983h180l350 -983h-184l-61 205h-390l-61 -205h-184zM311 322h320l-160 536z" />
<glyph unicode="B" horiz-adv-x="880" d="M113 0v983h301q159 0 256.5 -68t97.5 -178q0 -74 -64 -133.5t-164 -85.5q122 -17 205.5 -88t83.5 -164q0 -120 -97 -193t-257 -73h-362zM287 123h162q93 0 149.5 39t56.5 104q0 83 -56.5 134t-149.5 51h-162v-328zM287 573h121q93 0 149.5 45t56.5 119q0 56 -56.5 89.5 t-149.5 33.5h-121v-287z" />
<glyph unicode="C" horiz-adv-x="819" d="M61 492q0 226 132.5 363.5t349.5 137.5q95 0 205 -26v-176q-83 59 -185 59q-143 0 -230 -98.5t-87 -259.5t82 -260t215 -99q122 0 205 59v-176q-110 -26 -205 -26q-217 0 -349.5 138t-132.5 364z" />
<glyph unicode="D" horiz-adv-x="962" d="M113 0v983h301q219 0 353 -132t134 -349q0 -226 -134 -364t-353 -138h-301zM287 123h104q148 0 239 104.5t91 274.5q0 161 -90.5 259.5t-239.5 98.5h-104v-737z" />
<glyph unicode="E" horiz-adv-x="778" d="M113 0v983h614v-133h-440v-277h358v-122h-358v-318h440v-133h-614z" />
<glyph unicode="F" horiz-adv-x="757" d="M113 0v983h594v-133h-420v-297h338v-133h-338v-420h-174z" />
<glyph unicode="G" horiz-adv-x="905" d="M61 502q0 221 134 356t352 135q104 0 211 -30v-172q-83 59 -191 59q-146 0 -235.5 -95.5t-89.5 -252.5q0 -166 81 -267.5t214 -101.5q69 0 129 20v257h-144v122h297v-503l-69 -11q-100 -28 -213 -28q-214 0 -345 141t-131 371z" />
<glyph unicode="H" horiz-adv-x="962" d="M113 0v983h174v-410h389v410h174v-983h-174v451h-389v-451h-174z" />
<glyph unicode="I" horiz-adv-x="399" d="M113 0v983h174v-983h-174z" />
<glyph unicode="J" horiz-adv-x="665" d="M61 18v157q86 -62 183 -62q70 0 112.5 56t42.5 148v533h-327v133h501v-686q0 -138 -89.5 -222.5t-237.5 -84.5q-88 0 -185 28z" />
<glyph unicode="K" horiz-adv-x="921" d="M113 0v983h174v-983h-174zM311 501l329 482h216l-381 -481l416 -502h-240z" />
<glyph unicode="L" horiz-adv-x="747" d="M113 0v983h174v-850h420v-133h-594z" />
<glyph unicode="M" horiz-adv-x="1310" d="M113 0v983h170l372 -670l373 670h170v-983h-154v702l-387 -696h-4l-387 696v-702h-153z" />
<glyph unicode="N" horiz-adv-x="962" d="M113 0v983h143l461 -690v690h133v-983h-143l-461 677v-677h-133z" />
<glyph unicode="O" horiz-adv-x="1003" d="M61 492q0 226 121.5 363.5t319.5 137.5t319 -137.5t121 -363.5t-121 -364t-319 -138t-319.5 138t-121.5 364zM242 492q0 -166 71.5 -267.5t188.5 -101.5t188.5 101.5t71.5 267.5t-71.5 267t-188.5 101t-188.5 -101t-71.5 -267z" />
<glyph unicode="P" horiz-adv-x="870" d="M113 0v983h286q189 0 304.5 -84.5t115.5 -222.5q0 -148 -112.5 -238t-296.5 -90h-123v-348h-174zM287 471h121q105 0 169 56.5t64 148.5q0 83 -64 133.5t-169 50.5h-121v-389z" />
<glyph unicode="Q" horiz-adv-x="1003" d="M61 492q0 226 121.5 363.5t319.5 137.5t319 -137.5t121 -363.5q0 -184 -82 -312t-224 -171l114 -234h-168l-105 319l-69 -95q-159 32 -253 164t-94 329zM242 492q0 -153 61.5 -252.5t163.5 -114.5l-35 106l86 21l57 -117q87 29 137 124.5t50 232.5q0 166 -71.5 267 t-188.5 101t-188.5 -101t-71.5 -267z" />
<glyph unicode="R" horiz-adv-x="880" d="M113 0v983h317q165 0 266 -70.5t101 -185.5q0 -79 -64 -143.5t-166 -91.5q96 -25 158 -84.5t72 -141.5l32 -266h-178l-30 266q-19 164 -230 164h-104v-430h-174zM287 553h143q91 0 147 48t56 126q0 60 -55.5 96.5t-147.5 36.5h-143v-307z" />
<glyph unicode="S" d="M82 66v170q65 -46 162.5 -84.5t165.5 -38.5q97 0 156 36.5t59 96.5q0 59 -58 102t-164 82q-53 19 -94.5 38t-86 47t-73.5 58.5t-48 73t-19 90.5q0 125 97.5 190.5t281.5 65.5q67 0 140 -17.5t126 -45.5v-164q-44 44 -115.5 74t-150.5 30q-100 0 -152.5 -34t-52.5 -99 q0 -44 46 -73t157 -70q58 -21 99 -39t90 -48t79.5 -63t51 -82t20.5 -106q0 -120 -107 -193t-282 -73q-74 0 -176.5 24.5t-151.5 51.5z" />
<glyph unicode="T" horiz-adv-x="829" d="M41 850v133h747v-133h-286v-850h-174v850h-287z" />
<glyph unicode="U" horiz-adv-x="901" d="M92 297v686h174v-686q0 -78 51 -126t134 -48t133.5 48t50.5 126v686h174v-686q0 -138 -98.5 -222.5t-259.5 -84.5t-260 84.5t-99 222.5z" />
<glyph unicode="V" horiz-adv-x="901" d="M31 983h213l207 -829l206 829h213l-335 -983h-168z" />
<glyph unicode="W" horiz-adv-x="1351" d="M31 983h213l166 -840l186 840h160l186 -840l166 840h213l-295 -983h-168l-182 689l-182 -689h-168z" />
<glyph unicode="X" horiz-adv-x="901" d="M31 0l338 514l-303 469h204l181 -330l180 330h205l-304 -469l338 -514h-211l-208 376l-209 -376h-211z" />
<glyph unicode="Y" horiz-adv-x="901" d="M31 983h209l211 -489l208 489h211l-333 -604v-379h-175v379z" />
<glyph unicode="Z" horiz-adv-x="829" d="M41 0l469 850h-438v133h706l-468 -850h448v-133h-717z" />
<glyph unicode="[" horiz-adv-x="491" d="M123 -410v1803h348v-113h-184v-1577h184v-113h-348z" />
<glyph unicode="\" horiz-adv-x="870" d="M20 1049l124 73l704 -1188l-123 -73z" />
<glyph unicode="]" horiz-adv-x="491" d="M20 -297h185v1577h-185v113h349v-1803h-349v113z" />
<glyph unicode="^" horiz-adv-x="622" d="M55 573l256 420l257 -420h-141l-116 211l-116 -211h-140z" />
<glyph unicode="_" horiz-adv-x="655" d="M20 -481h615v-133h-615v133z" />
<glyph unicode="`" horiz-adv-x="368" d="M51 874v121h111l162 -239l-21 -27z" />
<glyph unicode="a" d="M51 348q0 157 86.5 252.5t227.5 95.5h147l82 -114l20 114h144v-508l6 -192l-150 8l-8 150q-40 -76 -103.5 -120t-137.5 -44q-141 0 -227.5 98.5t-86.5 259.5zM221 348q0 -106 48.5 -170.5t127.5 -64.5q82 0 139.5 72t57.5 173v215h-197q-79 0 -127.5 -62t-48.5 -163z" />
<glyph unicode="b" d="M102 0v1106h164v-526l86 116h144q141 0 227 -95.5t86 -252.5q0 -161 -86 -259.5t-227 -98.5q-74 0 -138 45.5t-104 122.5l-8 -158h-144zM266 369q0 -106 57.5 -181t139.5 -75q79 0 127.5 64.5t48.5 170.5q0 101 -48.5 163t-127.5 62h-197v-204z" />
<glyph unicode="c" horiz-adv-x="696" d="M51 348q0 161 107 260t282 99q85 0 195 -26v-168q-76 54 -195 54q-98 0 -158.5 -60.5t-60.5 -158.5t60.5 -158.5t158.5 -60.5q118 0 195 55v-168q-110 -26 -195 -26q-175 0 -282 98.5t-107 259.5z" />
<glyph unicode="d" d="M51 348q0 157 86.5 252.5t227.5 95.5h143l86 -117v527h164v-918l6 -192l-150 8l-8 154q-40 -77 -103.5 -122.5t-137.5 -45.5q-141 0 -227.5 98.5t-86.5 259.5zM221 348q0 -106 48.5 -170.5t127.5 -64.5q82 0 139.5 75t57.5 181v204h-197q-79 0 -127.5 -62t-48.5 -163z " />
<glyph unicode="e" horiz-adv-x="772" d="M51 348q0 161 95.5 260t252.5 99q143 0 230.5 -82.5t87.5 -218.5v-48q0 -61 -62 -61h-437q25 -184 212 -184q118 0 195 54v-151q-89 -26 -195 -26q-170 0 -274.5 98.5t-104.5 259.5zM215 348q0 -19 1 -28l81 90h276q0 90 -44.5 137t-129.5 47q-90 0 -137 -63t-47 -183z " />
<glyph unicode="f" horiz-adv-x="552" d="M102 0v840q0 135 70 205.5t203 70.5q90 0 178 -22v-145q-78 55 -178 55q-53 0 -81 -42t-28 -122v-144h246v-112h-246v-584h-164z" />
<glyph unicode="g" d="M51 348q0 157 86.5 252.5t227.5 95.5h147l82 -114l20 114h144v-757q0 -161 -107 -260t-282 -99q-127 0 -215 22v160q84 -59 215 -59q101 0 163 65t62 171v197q-40 -68 -100 -107t-129 -39q-141 0 -227.5 98.5t-86.5 259.5zM221 348q0 -106 48.5 -170.5t127.5 -64.5 q82 0 139.5 75t57.5 181v204h-197q-79 0 -127.5 -62t-48.5 -163z" />
<glyph unicode="h" horiz-adv-x="901" d="M102 0v1106h164v-575q43 81 107.5 128.5t138.5 47.5q134 0 215.5 -59t81.5 -156v-492h-164v461q0 55 -39 89t-104 34q-98 0 -167 -90.5t-69 -217.5v-276h-164z" />
<glyph unicode="i" horiz-adv-x="368" d="M102 184v512h164v-508l6 -192l-159 8zM102 911v121q0 15 4 19t19 4h141v-121q0 -15 -3.5 -19t-18.5 -4h-142z" />
<glyph unicode="j" horiz-adv-x="368" d="M-133 -244q78 -53 143 -53q41 0 66.5 34t25.5 89v870h164v-870q0 -110 -70.5 -178t-185.5 -68q-54 0 -143 27v149zM102 911v121q0 15 4 19t19 4h141v-121q0 -15 -3.5 -19t-18.5 -4h-142z" />
<glyph unicode="k" horiz-adv-x="870" d="M102 0v1106h164v-1106h-164zM309 358l290 338h206l-328 -337l363 -359h-230z" />
<glyph unicode="l" horiz-adv-x="368" d="M102 184v922h164v-918l6 -192l-159 8z" />
<glyph unicode="m" horiz-adv-x="1361" d="M102 0v696h154l10 -154q40 77 99 121t127 44q111 0 185 -46t88 -124q40 79 99.5 124.5t128.5 45.5q125 0 201 -56.5t76 -148.5v-502h-164v471q0 51 -33.5 82t-89.5 31q-89 0 -152 -87t-63 -210v-287h-164v471q0 51 -33.5 82t-89.5 31q-89 0 -152 -87t-63 -210v-287h-164z " />
<glyph unicode="n" horiz-adv-x="901" d="M102 0v696h154l9 -163q42 80 107 127t140 47q134 0 215.5 -59t81.5 -156v-492h-164v461q0 55 -39 89t-104 34q-98 0 -167 -87t-69 -210v-287h-164z" />
<glyph unicode="o" horiz-adv-x="819" d="M51 348q0 161 99 260t260 99t259.5 -99t98.5 -260t-98.5 -259.5t-259.5 -98.5t-260 98.5t-99 259.5zM221 348q0 -106 52 -170.5t137 -64.5t136.5 64.5t51.5 170.5t-51.5 171t-136.5 65t-137 -65t-52 -171z" />
<glyph unicode="p" d="M102 -410v1106h144l20 -114l82 114h148q141 0 227 -95.5t86 -252.5q0 -161 -86 -259.5t-227 -98.5q-69 0 -129.5 39t-100.5 107v-546h-164zM266 369q0 -106 57.5 -181t139.5 -75q79 0 127.5 64.5t48.5 170.5q0 101 -48.5 163t-127.5 62h-197v-204z" />
<glyph unicode="q" d="M51 348q0 157 86.5 252.5t227.5 95.5h147l82 -113l20 113h144v-1106h-164v546q-40 -68 -100 -107t-129 -39q-141 0 -227.5 98.5t-86.5 259.5zM221 348q0 -106 48.5 -170.5t127.5 -64.5q82 0 139.5 75t57.5 181v204h-197q-79 0 -127.5 -62t-48.5 -163z" />
<glyph unicode="r" horiz-adv-x="634" d="M102 0v696h154l9 -157q44 77 113 122.5t148 45.5h68v-175h-113q-97 0 -156 -53t-59 -141v-338h-164z" />
<glyph unicode="s" horiz-adv-x="720" d="M82 37v160q58 -42 127.5 -65t128.5 -23q154 0 154 79q0 59 -144 97q-34 9 -53 14.5t-51.5 17.5t-51.5 23t-42.5 29t-36.5 38t-22 49t-9 62q0 92 81.5 140.5t235.5 48.5q100 0 195 -23v-164q-95 68 -205 68q-153 0 -153 -66q0 -57 149 -97q34 -9 53 -14.5t50.5 -17 t50 -21.5t41.5 -27.5t35 -36.5t21 -45.5t9 -57.5q0 -105 -84 -160t-244 -55q-111 0 -235 47z" />
<glyph unicode="t" horiz-adv-x="610" d="M98 266v615l164 61v-246h266v-112h-266v-318q0 -80 28 -122t81 -42q100 0 178 55v-145q-88 -22 -178 -22q-133 0 -203 70.5t-70 205.5z" />
<glyph unicode="u" horiz-adv-x="901" d="M92 205v491h164v-460q0 -55 39 -89t104 -34q98 0 167 87t69 210v286h164v-696h-154l-9 163q-42 -80 -107 -126.5t-140 -46.5q-134 0 -215.5 59t-81.5 156z" />
<glyph unicode="v" horiz-adv-x="819" d="M31 696h209l170 -565l170 565h208l-296 -696h-164z" />
<glyph unicode="w" horiz-adv-x="1208" d="M31 696h209l118 -575l160 575h172l160 -575l119 575h209l-246 -696h-164l-164 472l-164 -472h-164z" />
<glyph unicode="x" d="M31 0l325 369l-291 327h213l152 -231l152 231h213l-291 -327l325 -369h-226l-173 272l-173 -272h-226z" />
<glyph unicode="y" horiz-adv-x="798" d="M20 -266q202 0 334 274l-323 688h192l197 -528l155 528h193l-289 -714q-159 -392 -459 -392v144z" />
<glyph unicode="z" horiz-adv-x="747" d="M31 0l421 584h-391v112h646l-422 -583h401v-113h-655z" />
<glyph unicode="{" horiz-adv-x="532" d="M31 446v91q44 0 71.5 5t49.5 22.5t33.5 41t18.5 71.5t9 102t2 143q0 230 76 350.5t221 120.5v-101q-31 0 -48 -2.5t-33 -17.5t-22.5 -36.5t-12 -70t-6.5 -106.5t-1 -158q0 -169 -67 -274.5t-183 -134.5q116 -29 183 -135t67 -275q0 -100 1 -158t6.5 -106.5t12 -69.5 t22.5 -35.5t33 -17t48 -2.5v-103q-145 0 -221 120.5t-76 350.5q0 89 -2 143t-9 102t-18.5 71.5t-33.5 41t-49.5 22.5t-71.5 5z" />
<glyph unicode="|" horiz-adv-x="491" d="M164 -614v2048h164v-2048h-164z" />
<glyph unicode="}" horiz-adv-x="532" d="M20 -309q31 0 48 2.5t33 17.5t22.5 36.5t12 70t6.5 106.5t1 158q0 169 67 275t183 135q-116 29 -183 134.5t-67 274.5q0 100 -1 158t-6.5 106.5t-12 69.5t-22.5 35.5t-33 17t-48 2.5v103q145 0 221 -120.5t76 -350.5q0 -89 2 -143t9.5 -101.5t18.5 -71.5t33 -41.5 t50 -22.5t72 -5v-91q-44 0 -72 -5t-50 -22.5t-33 -41.5t-18.5 -71.5t-9.5 -101.5t-2 -143q0 -230 -76 -350.5t-221 -120.5v101z" />
<glyph unicode="~" horiz-adv-x="624" d="M82 379v143q22 38 52.5 59t62.5 21q38 0 120 -38t121 -38q68 0 115 82v-143q-22 -38 -52.5 -59t-62.5 -21q-39 0 -121 38t-120 38q-68 0 -115 -82z" />
<glyph unicode="&#xa2;" horiz-adv-x="686" d="M51 492q0 143 65 230.5t191 115.5v186h144v-174q78 -2 174 -26v-158q-77 55 -195 55q-102 0 -155.5 -58.5t-53.5 -170.5t53.5 -171t155.5 -59q118 0 195 55v-158q-96 -24 -174 -26v-174h-144v186q-126 28 -191 116t-65 231z" />
<glyph unicode="&#xa3;" horiz-adv-x="737" d="M31 0v25v88l44 12q68 44 68 182v123h-82v123h82v154q0 129 90.5 207.5t239.5 78.5q82 0 172 -26v-151q-35 25 -82.5 39.5t-87.5 14.5q-76 0 -122 -46.5t-46 -123.5v-147h246v-123h-246v-123q0 -103 -52 -174h421v-133h-645z" />
<glyph unicode="&#xa5;" horiz-adv-x="890" d="M31 983h213l207 -485l217 485h192l-300 -563h157v-123h-185v-297h-174v297h-184v123h157z" />
<glyph unicode="&#xa8;" horiz-adv-x="491" d="M10 860v121q0 15 4 19t19 4h131v-121q0 -15 -4 -19t-19 -4h-131zM328 860v121q0 15 3.5 19t18.5 4h131v-121q0 -15 -3.5 -19t-18.5 -4h-131z" />
<glyph unicode="&#xa9;" horiz-adv-x="1290" d="M61 492q0 262 160.5 422.5t423.5 160.5t423.5 -160.5t160.5 -422.5t-160.5 -423t-423.5 -161t-423.5 161t-160.5 423zM201 492q0 -209 121.5 -335t322.5 -126t323 126t122 335t-122 334.5t-323 125.5t-322.5 -125.5t-121.5 -334.5zM358 492q0 143 90 230t238 87 q74 0 184 -26v-152q-77 55 -184 55q-81 0 -130.5 -53t-49.5 -141t49.5 -141.5t130.5 -53.5q107 0 184 55v-152q-110 -26 -184 -26q-148 0 -238 87.5t-90 230.5z" />
<glyph unicode="&#xab;" horiz-adv-x="665" d="M41 369l225 270l25 -158l-105 -112l105 -113l-25 -158zM324 369l225 270l24 -158l-104 -112l104 -113l-24 -158z" />
<glyph unicode="&#xad;" horiz-adv-x="491" d="M41 389v133h410v-133h-410z" />
<glyph unicode="&#xae;" horiz-adv-x="1290" d="M61 492q0 262 160.5 422.5t423.5 160.5t423.5 -160.5t160.5 -422.5t-160.5 -423t-423.5 -161t-423.5 161t-160.5 423zM201 492q0 -209 121.5 -335t322.5 -126t323 126t122 335t-122 334.5t-323 125.5t-322.5 -125.5t-121.5 -334.5zM439 178v632h201q104 0 168 -43.5 t64 -114.5q0 -56 -40 -103.5t-117 -67.5q71 -20 111.5 -68.5t49.5 -118.5l13 -116h-124l-8 116q-6 69 -51 107.5t-123 38.5h-22v-262h-122zM561 535h74q54 0 87 28.5t33 74.5q0 35 -35 56.5t-92 21.5h-67v-181z" />
<glyph unicode="&#xb4;" horiz-adv-x="368" d="M45 877l162 239h110v-121l-251 -145z" />
<glyph unicode="&#xb8;" horiz-adv-x="395" d="M45 -311q48 -33 105 -33q44 0 71 21t27 55q0 37 -26.5 59.5t-69.5 22.5h-99l23 202h78l-17 -125h17q90 0 145 -42t55 -111q0 -71 -56 -114.5t-148 -43.5q-53 0 -105 14v95z" />
<glyph unicode="&#xbb;" horiz-adv-x="665" d="M92 256l105 113l-105 112l25 158l225 -270l-225 -271zM375 256l104 113l-104 112l24 158l226 -270l-226 -271z" />
<glyph unicode="&#x2c6;" horiz-adv-x="512" d="M39 850v111l197 135h40l197 -135v-111h-47l-170 145l-170 -145h-47z" />
<glyph unicode="&#x2da;" horiz-adv-x="409" d="M37 973q0 78 46 126t122 48t122 -48t46 -126t-46 -126t-122 -48t-122 48t-46 126zM119 973q0 -41 23.5 -66.5t62.5 -25.5t62.5 25.5t23.5 66.5t-23.5 66.5t-62.5 25.5t-62.5 -25.5t-23.5 -66.5z" />
<glyph unicode="&#x2dc;" horiz-adv-x="532" d="M41 874v113q45 80 109 80q34 0 116 -38t117 -38q62 0 109 82v-112q-45 -80 -109 -80q-35 0 -117 38q-80 37 -116 37q-62 0 -109 -82z" />
<glyph unicode="&#x400;" horiz-adv-x="778" d="M113 0v983h614v-133h-440v-277h358v-122h-358v-318h440v-133h-614zM240 1231v121h110l162 -240l-20 -27z" />
<glyph unicode="&#x401;" horiz-adv-x="778" d="M113 0v983h614v-133h-440v-277h358v-122h-358v-318h440v-133h-614zM178 1157v121q0 15 4 18.5t19 3.5h131v-120q0 -15 -4 -19t-19 -4h-131zM496 1157v121q0 15 3.5 18.5t18.5 3.5h131v-120q0 -15 -3.5 -19t-18.5 -4h-131z" />
<glyph unicode="&#x402;" horiz-adv-x="1095" d="M41 850v133h747v-133h-286v-393q41 78 102.5 123t132.5 45q129 0 208 -59t79 -156v-584q0 -110 -70.5 -178t-185.5 -68q-54 0 -143 27v149q78 -53 143 -53q41 0 66.5 34t25.5 89v553q0 55 -36.5 89t-96.5 34q-93 0 -159 -87t-66 -210v-205h-174v850h-287z" />
<glyph unicode="&#x403;" horiz-adv-x="768" d="M113 0v983h614v-133h-440v-850h-174zM338 1112l162 240h110v-121l-252 -146z" />
<glyph unicode="&#x404;" horiz-adv-x="819" d="M61 492q0 226 132.5 363.5t349.5 137.5q95 0 205 -26v-176q-83 59 -185 59q-128 0 -212.5 -80.5t-101.5 -216.5h355v-123h-355q16 -136 95 -216.5t199 -80.5q122 0 205 59v-176q-110 -26 -205 -26q-217 0 -349.5 138t-132.5 364z" />
<glyph unicode="&#x405;" d="M82 66v170q65 -46 162.5 -84.5t165.5 -38.5q97 0 156 36.5t59 96.5q0 59 -58 102t-164 82q-53 19 -94.5 38t-86 47t-73.5 58.5t-48 73t-19 90.5q0 125 97.5 190.5t281.5 65.5q67 0 140 -17.5t126 -45.5v-164q-44 44 -115.5 74t-150.5 30q-100 0 -152.5 -34t-52.5 -99 q0 -44 46 -73t157 -70q58 -21 99 -39t90 -48t79.5 -63t51 -82t20.5 -106q0 -120 -107 -193t-282 -73q-74 0 -176.5 24.5t-151.5 51.5z" />
<glyph unicode="&#x406;" horiz-adv-x="399" d="M113 0v983h174v-983h-174z" />
<glyph unicode="&#x407;" horiz-adv-x="399" d="M-55 1157v121q0 15 3.5 18.5t18.5 3.5h131v-120q0 -15 -3.5 -19t-18.5 -4h-131zM113 0v983h174v-983h-174zM262 1157v121q0 15 4 18.5t19 3.5h131v-120q0 -15 -4 -19t-19 -4h-131z" />
<glyph unicode="&#x408;" horiz-adv-x="665" d="M61 18v157q86 -62 183 -62q70 0 112.5 56t42.5 148v533h-327v133h501v-686q0 -138 -89.5 -222.5t-237.5 -84.5q-88 0 -185 28z" />
<glyph unicode="&#x409;" horiz-adv-x="1372" d="M41 -10v174q80 0 127 50t47 144v625h614v-410h105q174 0 280.5 -78.5t106.5 -207.5t-106.5 -208t-280.5 -79h-279v860h-266v-502q0 -166 -95.5 -267t-252.5 -101zM829 123h113q90 0 145.5 45.5t55.5 118.5t-55.5 118.5t-145.5 45.5h-113v-328z" />
<glyph unicode="&#x40a;" horiz-adv-x="1392" d="M113 0v983h174v-410h389v410h174v-410h104q174 0 280.5 -78.5t106.5 -207.5t-106.5 -208t-280.5 -79h-278v451h-389v-451h-174zM850 123h113q90 0 145 45t55 119t-55 119t-145 45h-113v-328z" />
<glyph unicode="&#x40b;" horiz-adv-x="1116" d="M41 850v133h747v-133h-286v-393q41 78 102.5 123t132.5 45q129 0 208 -59t79 -156v-410h-164v379q0 55 -36.5 89t-96.5 34q-93 0 -159 -87t-66 -210v-205h-174v850h-287z" />
<glyph unicode="&#x40c;" horiz-adv-x="921" d="M113 0v983h174v-983h-174zM295 1112l162 240h110v-121l-252 -146zM311 501l329 482h216l-381 -481l416 -502h-240z" />
<glyph unicode="&#x40d;" horiz-adv-x="962" d="M113 0v983h163v-675l420 675h154v-983h-164v663l-420 -663h-153zM266 1231v121h111l162 -240l-21 -27z" />
<glyph unicode="&#x40e;" horiz-adv-x="829" d="M31 983h196l219 -524l168 524h185l-263 -656q-42 -103 -85.5 -167.5t-102 -102.5t-127.5 -52.5t-170 -14.5v143q60 0 95.5 2.5t75 11.5t65 27t50 49.5t45.5 78.5zM219 1321h103q0 -74 30.5 -119t81.5 -45t82 45t31 119h102q0 -101 -59 -163t-156 -62t-156 62t-59 163z " />
<glyph unicode="&#x40f;" horiz-adv-x="962" d="M113 0v983h174v-860h389v860h174v-983h-336l8 -217h-123l9 217h-295z" />
<glyph unicode="&#x410;" horiz-adv-x="942" d="M31 0l350 983h180l350 -983h-184l-61 205h-390l-61 -205h-184zM311 322h320l-160 536z" />
<glyph unicode="&#x411;" horiz-adv-x="870" d="M113 0v983h614v-123h-440v-287h112q189 0 304.5 -78.5t115.5 -207.5t-115.5 -208t-304.5 -79h-286zM287 123h123q104 0 167.5 45t63.5 119t-63.5 119t-167.5 45h-123v-328z" />
<glyph unicode="&#x412;" horiz-adv-x="880" d="M113 0v983h301q159 0 256.5 -68t97.5 -178q0 -74 -64 -133.5t-164 -85.5q122 -17 205.5 -88t83.5 -164q0 -120 -97 -193t-257 -73h-362zM287 123h162q93 0 149.5 39t56.5 104q0 83 -56.5 134t-149.5 51h-162v-328zM287 573h121q93 0 149.5 45t56.5 119q0 56 -56.5 89.5 t-149.5 33.5h-121v-287z" />
<glyph unicode="&#x413;" horiz-adv-x="768" d="M113 0v983h614v-133h-440v-850h-174z" />
<glyph unicode="&#x414;" horiz-adv-x="1044" d="M41 123h78q69 7 113 77.5t44 168.5v614h605v-860h123v-340h-123v217h-717v-217h-123v340zM358 123h349v737h-256v-491q0 -150 -93 -246z" />
<glyph unicode="&#x415;" horiz-adv-x="778" d="M113 0v983h614v-133h-440v-277h358v-122h-358v-318h440v-133h-614z" />
<glyph unicode="&#x416;" horiz-adv-x="1415" d="M31 0l405 502l-370 481h210l324 -482l-335 -501h-234zM621 0v983h174v-983h-174zM815 501l324 482h211l-371 -481l405 -502h-234z" />
<glyph unicode="&#x417;" horiz-adv-x="757" d="M51 16v166q40 -28 108 -43.5t128 -15.5q106 0 170.5 45t64.5 119q0 88 -57 141t-150 53h-120v133h71q89 0 152 42.5t63 101.5q0 46 -54 74t-142 28q-52 0 -113.5 -16t-99.5 -43v166q89 26 215 26q161 0 259.5 -64.5t98.5 -170.5q0 -67 -62 -122t-163 -82q125 -24 206 -98 t81 -169q0 -134 -115.5 -215.5t-304.5 -81.5q-132 0 -236 26z" />
<glyph unicode="&#x418;" horiz-adv-x="962" d="M113 0v983h163v-675l420 675h154v-983h-164v663l-420 -663h-153z" />
<glyph unicode="&#x419;" horiz-adv-x="962" d="M113 0v983h163v-675l420 675h154v-983h-164v663l-420 -663h-153zM266 1321h103q0 -74 30.5 -119t81.5 -45t82 45t31 119h102q0 -101 -59 -163t-156 -62t-156 62t-59 163z" />
<glyph unicode="&#x41a;" horiz-adv-x="921" d="M113 0v983h174v-983h-174zM311 501l329 482h216l-381 -481l416 -502h-240z" />
<glyph unicode="&#x41b;" horiz-adv-x="962" d="M41 -10v174q80 0 127 50t47 144v625h635v-983h-174v860h-287v-502q0 -166 -95.5 -267t-252.5 -101z" />
<glyph unicode="&#x41c;" horiz-adv-x="1310" d="M113 0v983h170l372 -670l373 670h170v-983h-154v702l-387 -696h-4l-387 696v-702h-153z" />
<glyph unicode="&#x41d;" horiz-adv-x="962" d="M113 0v983h174v-410h389v410h174v-983h-174v451h-389v-451h-174z" />
<glyph unicode="&#x41e;" horiz-adv-x="1003" d="M61 492q0 226 121.5 363.5t319.5 137.5t319 -137.5t121 -363.5t-121 -364t-319 -138t-319.5 138t-121.5 364zM242 492q0 -166 71.5 -267.5t188.5 -101.5t188.5 101.5t71.5 267.5t-71.5 267t-188.5 101t-188.5 -101t-71.5 -267z" />
<glyph unicode="&#x41f;" horiz-adv-x="962" d="M113 0v983h737v-983h-174v860h-389v-860h-174z" />
<glyph unicode="&#x420;" horiz-adv-x="870" d="M113 0v983h286q189 0 304.5 -84.5t115.5 -222.5q0 -148 -112.5 -238t-296.5 -90h-123v-348h-174zM287 471h121q105 0 169 56.5t64 148.5q0 83 -64 133.5t-169 50.5h-121v-389z" />
<glyph unicode="&#x421;" horiz-adv-x="819" d="M61 492q0 226 132.5 363.5t349.5 137.5q95 0 205 -26v-176q-83 59 -185 59q-143 0 -230 -98.5t-87 -259.5t82 -260t215 -99q122 0 205 59v-176q-110 -26 -205 -26q-217 0 -349.5 138t-132.5 364z" />
<glyph unicode="&#x422;" horiz-adv-x="829" d="M41 850v133h747v-133h-286v-850h-174v850h-287z" />
<glyph unicode="&#x423;" horiz-adv-x="829" d="M31 983h196l219 -524l168 524h185l-263 -656q-42 -103 -85.5 -167.5t-102 -102.5t-127.5 -52.5t-170 -14.5v143q60 0 95.5 2.5t75 11.5t65 27t50 49.5t45.5 78.5z" />
<glyph unicode="&#x424;" horiz-adv-x="1044" d="M41 492q0 149 108 247t291 117v127h164v-127q183 -19 291.5 -117t108.5 -247t-108.5 -247.5t-291.5 -117.5v-127h-164v127q-183 19 -291 117t-108 248zM211 492q0 -89 61.5 -150t167.5 -79v457q-106 -18 -167.5 -78.5t-61.5 -149.5zM604 263q106 18 168 79t62 150 q0 88 -62 149t-168 79v-457z" />
<glyph unicode="&#x425;" horiz-adv-x="901" d="M31 0l338 514l-303 469h204l181 -330l180 330h205l-304 -469l338 -514h-211l-208 376l-209 -376h-211z" />
<glyph unicode="&#x426;" horiz-adv-x="1044" d="M113 0v983h174v-860h379v860h174v-860h164v-340h-123v217h-768z" />
<glyph unicode="&#x427;" horiz-adv-x="911" d="M92 635v348h164v-348q0 -51 34.5 -82t90.5 -31h243h1v461h174v-983h-174v379h-250q-128 0 -205.5 70.5t-77.5 185.5z" />
<glyph unicode="&#x428;" horiz-adv-x="1320" d="M113 0v983h174v-860h286v860h175v-860h286v860h174v-983h-1095z" />
<glyph unicode="&#x429;" horiz-adv-x="1382" d="M113 0v983h174v-860h276v860h174v-860h277v860h174v-860h153v-340h-122v217h-1106z" />
<glyph unicode="&#x42a;" horiz-adv-x="972" d="M41 860v123h369v-430h125q174 0 280.5 -76t106.5 -201q0 -124 -106.5 -200t-280.5 -76h-299v860h-195zM410 123h133q90 0 145 42t55 111t-55 111.5t-145 42.5h-133v-307z" />
<glyph unicode="&#x42b;" horiz-adv-x="1187" d="M113 0v983h174v-430h125q174 0 280.5 -76t106.5 -201q0 -124 -106.5 -200t-280.5 -76h-299zM287 123h133q90 0 145.5 42t55.5 111t-55.5 111.5t-145.5 42.5h-133v-307zM901 0v983h174v-983h-174z" />
<glyph unicode="&#x42c;" horiz-adv-x="849" d="M113 0v983h174v-430h125q174 0 280.5 -76t106.5 -201q0 -124 -106.5 -200t-280.5 -76h-299zM287 123h133q90 0 145.5 42t55.5 111t-55.5 111.5t-145.5 42.5h-133v-307z" />
<glyph unicode="&#x42d;" horiz-adv-x="819" d="M72 16v176q83 -59 204 -59q120 0 199 80.5t95 216.5h-355v123h355q-17 136 -101.5 216.5t-212.5 80.5q-101 0 -184 -59v176q110 26 204 26q217 0 349.5 -137.5t132.5 -363.5t-132.5 -364t-349.5 -138q-94 0 -204 26z" />
<glyph unicode="&#x42e;" horiz-adv-x="1351" d="M113 0v983h174v-430h125q17 201 135.5 320.5t302.5 119.5q198 0 319 -137.5t121 -363.5t-121 -364t-319 -138q-184 0 -302.5 119.5t-135.5 320.5h-125v-430h-174zM590 492q0 -166 71.5 -267.5t188.5 -101.5t188.5 101.5t71.5 267.5t-71.5 267t-188.5 101t-188.5 -101 t-71.5 -267z" />
<glyph unicode="&#x42f;" horiz-adv-x="880" d="M61 -10v164l113 8q74 6 138.5 73t64.5 166v23q-125 18 -209 101t-84 192q0 120 97 193t257 73h156h174v-983h-174v420h-107v-49q0 -83 -27.5 -153.5t-73 -116t-100.5 -72.5t-112 -31zM258 717q0 -78 55 -126t144 -48h137v317h-137q-89 0 -144 -39.5t-55 -103.5z" />
<glyph unicode="&#x430;" d="M51 348q0 157 86.5 252.5t227.5 95.5h147l82 -114l20 114h144v-508l6 -192l-150 8l-8 150q-40 -76 -103.5 -120t-137.5 -44q-141 0 -227.5 98.5t-86.5 259.5zM221 348q0 -106 48.5 -170.5t127.5 -64.5q82 0 139.5 72t57.5 173v215h-197q-79 0 -127.5 -62t-48.5 -163z" />
<glyph unicode="&#x431;" d="M61 492q0 226 117.5 363.5t310.5 137.5l197 1v-42q0 -37 -52.5 -59.5t-139.5 -22.5q-100 0 -168.5 -76.5t-87.5 -207.5q92 121 233 121q152 0 245 -99t93 -260t-100.5 -259.5t-264.5 -98.5q-172 0 -277.5 138t-105.5 364zM240 375q18 -122 72 -192t132 -70 q90 0 145.5 64.5t55.5 170.5t-53 171t-141 65q-87 0 -148.5 -61.5t-62.5 -147.5z" />
<glyph unicode="&#x432;" horiz-adv-x="798" d="M102 0v696h297q129 0 208 -48t79 -126q0 -50 -45.5 -90.5t-119.5 -59.5q99 -16 163 -65t64 -112q0 -88 -87.5 -141.5t-230.5 -53.5h-328zM266 113h164q64 0 103.5 22.5t39.5 59.5q0 51 -39 81.5t-104 30.5h-164v-194zM266 430h133q60 0 96.5 22.5t36.5 59.5 q0 32 -36.5 52t-96.5 20h-133v-154z" />
<glyph unicode="&#x433;" horiz-adv-x="665" d="M113 0v696h512v-123h-349v-573h-163z" />
<glyph unicode="&#x434;" horiz-adv-x="942" d="M31 113h71q69 0 111.5 62t42.5 163v358h522v-583h123v-330h-113v217h-645v-217h-112v330zM284 113h330v471h-194v-246q0 -75 -35.5 -133t-100.5 -92z" />
<glyph unicode="&#x435;" horiz-adv-x="772" d="M51 348q0 161 95.5 260t252.5 99q143 0 230.5 -82.5t87.5 -218.5v-48q0 -61 -62 -61h-437q25 -184 212 -184q118 0 195 54v-151q-89 -26 -195 -26q-170 0 -274.5 98.5t-104.5 259.5zM215 348q0 -19 1 -28l81 90h276q0 90 -44.5 137t-129.5 47q-90 0 -137 -63t-47 -183z " />
<glyph unicode="&#x436;" horiz-adv-x="1331" d="M31 0l354 359l-320 337h207l281 -338l-292 -358h-230zM584 0v696h164v-696h-164zM778 358l281 338h207l-320 -337l355 -359h-231z" />
<glyph unicode="&#x437;" horiz-adv-x="665" d="M51 16v145q40 -29 106.5 -44t125.5 -15q71 0 114 25t43 66q0 114 -166 114h-102v123h74q76 0 120 25t44 73q0 29 -39 47t-102 18q-52 0 -108.5 -15.5t-94.5 -42.5v145q102 26 191 26q138 0 222 -49t84 -129q0 -51 -50.5 -92.5t-132.5 -62.5q103 -15 168.5 -63t65.5 -115 q0 -92 -93 -148.5t-245 -56.5q-121 0 -225 26z" />
<glyph unicode="&#x438;" d="M102 0v696h154v-444l399 444h103v-696h-154v434l-399 -434h-103z" />
<glyph unicode="&#x439;" d="M102 0v696h154v-444l399 444h103v-696h-154v434l-399 -434h-103zM215 1075h102q0 -74 31 -119t82 -45t82 45t31 119h102q0 -101 -59 -163t-156 -62t-156 62t-59 163z" />
<glyph unicode="&#x43a;" horiz-adv-x="870" d="M102 0v696h164v-696h-164zM309 358l290 338h206l-328 -337l363 -359h-230z" />
<glyph unicode="&#x43b;" horiz-adv-x="870" d="M41 -10v164q78 0 126 50.5t48 133.5v358h553v-696h-164v573h-225v-235q0 -157 -93 -252.5t-245 -95.5z" />
<glyph unicode="&#x43c;" horiz-adv-x="1105" d="M102 0v696h154l297 -448l297 448h154v-696h-144v479l-305 -452h-4l-305 452v-479h-144z" />
<glyph unicode="&#x43d;" d="M102 0v696h164v-266h328v266h164v-696h-164v307h-328v-307h-164z" />
<glyph unicode="&#x43e;" horiz-adv-x="819" d="M51 348q0 161 99 260t260 99t259.5 -99t98.5 -260t-98.5 -259.5t-259.5 -98.5t-260 98.5t-99 259.5zM221 348q0 -106 52 -170.5t137 -64.5t136.5 64.5t51.5 170.5t-51.5 171t-136.5 65t-137 -65t-52 -171z" />
<glyph unicode="&#x43f;" d="M102 0v696h656v-696h-164v573h-328v-573h-164z" />
<glyph unicode="&#x440;" d="M102 -410v1106h144l20 -114l82 114h148q141 0 227 -95.5t86 -252.5q0 -161 -86 -259.5t-227 -98.5q-69 0 -129.5 39t-100.5 107v-546h-164zM266 369q0 -106 57.5 -181t139.5 -75q79 0 127.5 64.5t48.5 170.5q0 101 -48.5 163t-127.5 62h-197v-204z" />
<glyph unicode="&#x441;" horiz-adv-x="696" d="M51 348q0 161 107 260t282 99q85 0 195 -26v-168q-76 54 -195 54q-98 0 -158.5 -60.5t-60.5 -158.5t60.5 -158.5t158.5 -60.5q118 0 195 55v-168q-110 -26 -195 -26q-175 0 -282 98.5t-107 259.5z" />
<glyph unicode="&#x442;" horiz-adv-x="716" d="M41 573v123h635v-123h-236v-573h-164v573h-235z" />
<glyph unicode="&#x443;" horiz-adv-x="798" d="M20 -266q202 0 334 274l-323 688h192l197 -528l155 528h193l-289 -714q-159 -392 -459 -392v144z" />
<glyph unicode="&#x444;" horiz-adv-x="1351" d="M51 348q0 157 89 252.5t235 95.5h137l82 -104v514h164v-514l82 104h137q145 0 234 -95.5t89 -252.5q0 -161 -86 -259.5t-227 -98.5q-71 0 -130 39t-99 106v-545h-164v545q-40 -67 -99 -106t-130 -39q-141 0 -227.5 98.5t-86.5 259.5zM221 348q0 -106 45.5 -170.5 t120.5 -64.5q92 0 149.5 74t57.5 182v215h-197q-79 0 -127.5 -65t-48.5 -171zM758 369q0 -108 57.5 -182t149.5 -74q75 0 120 64.5t45 170.5t-48.5 171t-127.5 65h-196v-215z" />
<glyph unicode="&#x445;" d="M31 0l325 369l-291 327h213l152 -231l152 231h213l-291 -327l325 -369h-226l-173 272l-173 -272h-226z" />
<glyph unicode="&#x446;" horiz-adv-x="901" d="M82 0v696h164v-573h286v573h164v-573h164v-340h-123v217h-655z" />
<glyph unicode="&#x447;" horiz-adv-x="819" d="M82 471v225h164v-225q0 -51 34.5 -82t90.5 -31h182v338h164v-696h-164v236h-188q-127 0 -205 64.5t-78 170.5z" />
<glyph unicode="&#x448;" horiz-adv-x="1228" d="M102 0v696h164v-594h266v594h164v-594h267v594h163v-696h-1024z" />
<glyph unicode="&#x449;" horiz-adv-x="1310" d="M102 0v696h164v-573h256v573h164v-573h256v573h164v-573h164v-340h-123v217h-1045z" />
<glyph unicode="&#x44a;" horiz-adv-x="870" d="M41 594v102h338v-235h113q148 0 237.5 -64t89.5 -168q0 -103 -89.5 -166t-237.5 -63h-277v594h-174zM379 123h119q68 0 109.5 29t41.5 77q0 49 -41.5 79t-109.5 30h-119v-215z" />
<glyph unicode="&#x44b;" horiz-adv-x="1044" d="M102 0v696h164v-235h113q148 0 238 -64t90 -168q0 -103 -90 -166t-238 -63h-277zM266 123h119q68 0 110 29t42 77q0 49 -42 79t-110 30h-119v-215zM799 0v696h143v-696h-143z" />
<glyph unicode="&#x44c;" horiz-adv-x="757" d="M102 0v696h164v-235h113q148 0 238 -64t90 -168q0 -103 -90 -166t-238 -63h-277zM266 123h119q68 0 110 29t42 77q0 49 -42 79t-110 30h-119v-215z" />
<glyph unicode="&#x44d;" horiz-adv-x="696" d="M61 16v161q76 -54 195 -54q82 0 139 44t74 120h-295v123h295q-17 75 -74 119t-139 44q-119 0 -195 -54v162q110 26 195 26q175 0 282 -99t107 -260t-107 -259.5t-282 -98.5q-85 0 -195 26z" />
<glyph unicode="&#x44e;" horiz-adv-x="1167" d="M102 0v696h164v-286h137q19 136 114.5 216.5t240.5 80.5q161 0 259.5 -99t98.5 -260t-98.5 -259.5t-259.5 -98.5q-145 0 -240.5 80.5t-114.5 216.5h-137v-287h-164zM569 348q0 -106 52 -170.5t137 -64.5t136.5 64.5t51.5 170.5t-51.5 171t-136.5 65t-137 -65t-52 -171z " />
<glyph unicode="&#x44f;" horiz-adv-x="808" d="M63 -10v153l102 4q130 6 157 115q-104 17 -172 75.5t-68 133.5q0 101 86 163t227 62h148h164v-696h-164v256h-138q-18 -233 -241 -256zM246 471q0 -51 46 -82t122 -31h129v226h-129q-76 0 -122 -31t-46 -82z" />
<glyph unicode="&#x450;" horiz-adv-x="772" d="M51 348q0 161 95.5 260t252.5 99q143 0 230.5 -82.5t87.5 -218.5v-48q0 -61 -62 -61h-437q25 -184 212 -184q118 0 195 54v-151q-89 -26 -195 -26q-170 0 -274.5 98.5t-104.5 259.5zM205 985v121h110l162 -240l-20 -26zM215 348q0 -19 1 -28l81 90h276q0 90 -44.5 137 t-129.5 47q-90 0 -137 -63t-47 -183z" />
<glyph unicode="&#x451;" horiz-adv-x="772" d="M51 348q0 161 95.5 260t252.5 99q143 0 230.5 -82.5t87.5 -218.5v-48q0 -61 -62 -61h-437q25 -184 212 -184q118 0 195 54v-151q-89 -26 -195 -26q-170 0 -274.5 98.5t-104.5 259.5zM143 911v121q0 15 4 19t19 4h131v-121q0 -15 -4 -19t-19 -4h-131zM215 348q0 -19 1 -28 l81 90h276q0 90 -44.5 137t-129.5 47q-90 0 -137 -63t-47 -183zM461 911v121q0 15 3.5 19t18.5 4h131v-121q0 -15 -3.5 -19t-18.5 -4h-131z" />
<glyph unicode="&#x452;" horiz-adv-x="901" d="M31 829v113h71v164h164v-164h226v-113h-226v-339q43 81 107.5 128.5t138.5 47.5q134 0 215.5 -59t81.5 -156v-625q0 -110 -70.5 -178t-185.5 -68q-54 0 -143 27v149q78 -53 143 -53q41 0 66.5 34t25.5 89v594q0 55 -39 89t-104 34q-98 0 -167 -90t-69 -217v-236h-164v829 h-71z" />
<glyph unicode="&#x453;" horiz-adv-x="665" d="M113 0v696h512v-123h-349v-573h-163zM236 825l161 240h111v-121l-252 -145z" />
<glyph unicode="&#x454;" horiz-adv-x="696" d="M51 348q0 161 107 260t282 99q85 0 195 -26v-162q-76 54 -195 54q-82 0 -138.5 -43.5t-73.5 -119.5h294v-123h-294q17 -76 73.5 -120t138.5 -44q119 0 195 54v-161q-110 -26 -195 -26q-175 0 -282 98.5t-107 259.5z" />
<glyph unicode="&#x455;" horiz-adv-x="720" d="M82 37v160q58 -42 127.5 -65t128.5 -23q154 0 154 79q0 59 -144 97q-34 9 -53 14.5t-51.5 17.5t-51.5 23t-42.5 29t-36.5 38t-22 49t-9 62q0 92 81.5 140.5t235.5 48.5q100 0 195 -23v-164q-95 68 -205 68q-153 0 -153 -66q0 -57 149 -97q34 -9 53 -14.5t50.5 -17 t50 -21.5t41.5 -27.5t35 -36.5t21 -45.5t9 -57.5q0 -105 -84 -160t-244 -55q-111 0 -235 47z" />
<glyph unicode="&#x456;" horiz-adv-x="368" d="M102 184v512h164v-508l6 -192l-159 8zM102 911v121q0 15 4 19t19 4h141v-121q0 -15 -3.5 -19t-18.5 -4h-142z" />
<glyph unicode="&#x457;" horiz-adv-x="368" d="M-72 911v121q0 15 4 19t19 4h131v-121q0 -15 -4 -19t-19 -4h-131zM102 184v512h164v-508l6 -192l-159 8zM246 911v121q0 15 3.5 19t18.5 4h131v-121q0 -15 -3.5 -19t-18.5 -4h-131z" />
<glyph unicode="&#x458;" horiz-adv-x="368" d="M-133 -244q78 -53 143 -53q41 0 66.5 34t25.5 89v870h164v-870q0 -110 -70.5 -178t-185.5 -68q-54 0 -143 27v149zM102 911v121q0 15 4 19t19 4h141v-121q0 -15 -3.5 -19t-18.5 -4h-142z" />
<glyph unicode="&#x459;" horiz-adv-x="1218" d="M41 -10v164q78 0 126 50.5t48 133.5v358h533v-245h92q148 0 237.5 -61t89.5 -165q0 -103 -89.5 -164t-237.5 -61h-256v573h-205v-235q0 -157 -93 -252.5t-245 -95.5zM748 123h98q69 0 110 27t41 75t-41 75.5t-110 27.5h-98v-205z" />
<glyph unicode="&#x45a;" horiz-adv-x="1208" d="M102 0v696h164v-245h307v245h164v-245h92q149 0 238.5 -61t89.5 -165q0 -103 -89.5 -164t-238.5 -61h-256v328h-307v-328h-164zM737 123h99q69 0 110 27t41 75t-41 75.5t-110 27.5h-99v-205z" />
<glyph unicode="&#x45b;" horiz-adv-x="901" d="M31 829v113h71v164h164v-164h226v-113h-226v-339q43 81 107.5 128.5t138.5 47.5q134 0 215.5 -59t81.5 -156v-451h-164v420q0 55 -39 89t-104 34q-98 0 -167 -90t-69 -217v-236h-164v829h-71z" />
<glyph unicode="&#x45c;" horiz-adv-x="870" d="M102 0v696h164v-696h-164zM291 866l162 240h110v-121l-252 -145zM309 358l290 338h206l-328 -337l363 -359h-230z" />
<glyph unicode="&#x45d;" d="M102 0v696h154v-444l399 444h103v-696h-154v434l-399 -434h-103zM215 985v121h111l161 -240l-20 -26z" />
<glyph unicode="&#x45e;" horiz-adv-x="798" d="M20 -266q202 0 334 274l-323 688h192l197 -528l155 528h193l-289 -714q-159 -392 -459 -392v144zM188 1075h103q0 -74 30.5 -119t81.5 -45t82 45t31 119h102q0 -101 -59 -163t-156 -62t-156 62t-59 163z" />
<glyph unicode="&#x45f;" d="M102 0v696h164v-594h328v594h164v-696h-275l9 -217h-123l8 217h-275z" />
<glyph unicode="&#x462;" horiz-adv-x="911" d="M31 717v123h143v143h174v-143h236v-123h-236v-164h125q174 0 280.5 -76t106.5 -201q0 -124 -106.5 -200t-280.5 -76h-299v717h-143zM348 123h133q90 0 145.5 42t55.5 111t-55.5 111.5t-145.5 42.5h-133v-307z" />
<glyph unicode="&#x463;" horiz-adv-x="819" d="M31 614v113h133v154h164v-154h204v-113h-204v-153h112q148 0 238 -64t90 -168q0 -103 -90 -166t-238 -63h-276v614h-133zM328 123h118q68 0 110 29t42 77q0 49 -42 79t-110 30h-118v-215z" />
<glyph unicode="&#x464;" horiz-adv-x="1167" d="M113 0v983h174v-430h125q19 201 148.5 320.5t330.5 119.5q95 0 205 -26v-176q-83 59 -185 59q-128 0 -212 -80.5t-101 -216.5h354v-123h-355q16 -136 95 -216.5t199 -80.5q122 0 205 59v-176q-110 -26 -205 -26q-201 0 -330.5 119.5t-148.5 320.5h-125v-430h-174z" />
<glyph unicode="&#x465;" horiz-adv-x="1044" d="M102 0v696h164v-286h138q20 136 123.5 216.5t260.5 80.5q85 0 195 -26v-162q-76 54 -195 54q-82 0 -138.5 -43.5t-73.5 -119.5h294v-123h-294q17 -76 73.5 -120t138.5 -44q119 0 195 54v-161q-110 -26 -195 -26q-157 0 -260.5 80.5t-123.5 216.5h-138v-287h-164z" />
<glyph unicode="&#x472;" horiz-adv-x="1003" d="M61 492q0 226 121.5 363.5t319.5 137.5t319 -137.5t121 -363.5t-121 -364t-319 -138t-319.5 138t-121.5 364zM242 493q65 103 104 103q53 0 156 -38t155 -38q56 0 98 64q-19 127 -86.5 201.5t-166.5 74.5q-117 0 -188.5 -100.5t-71.5 -266.5zM249 392 q20 -124 87.5 -196.5t165.5 -72.5q115 0 186.5 98.5t73.5 260.5q-65 -103 -105 -103q-54 0 -154 37q-106 39 -157 39q-54 0 -97 -63z" />
<glyph unicode="&#x473;" horiz-adv-x="819" d="M51 348q0 161 99 260t260 99t259.5 -99t98.5 -260t-98.5 -259.5t-259.5 -98.5t-260 98.5t-99 259.5zM218 368q51 70 78 70q43 0 127 -38q76 -34 110 -34q36 0 65 40q-14 84 -64 133t-124 49q-83 0 -135 -60t-57 -160zM222 291q14 -84 64 -133t124 -49q83 0 135 60t57 160 q-51 -71 -79 -71q-41 0 -129 39q-76 33 -108 33q-36 0 -64 -39z" />
<glyph unicode="&#x490;" horiz-adv-x="768" d="M113 0v983h512l10 205h92v-338h-440v-850h-174z" />
<glyph unicode="&#x491;" horiz-adv-x="655" d="M102 0v696h410l10 195h92v-318h-348v-573h-164z" />
<glyph unicode="&#x4c0;" horiz-adv-x="399" d="M113 0v983h174v-983h-174z" />
<glyph unicode="&#x4c1;" horiz-adv-x="1415" d="M31 0l405 502l-370 481h210l324 -482l-335 -501h-234zM494 1321h102q0 -74 31 -119t82 -45t81.5 45t30.5 119h103q0 -101 -59 -163t-156 -62t-156 62t-59 163zM621 0v983h174v-983h-174zM815 501l324 482h211l-371 -481l405 -502h-234z" />
<glyph unicode="&#x4c2;" horiz-adv-x="1331" d="M31 0l354 359l-320 337h207l281 -338l-292 -358h-230zM451 1075h102q0 -74 31 -119t82 -45t81.5 45t30.5 119h103q0 -101 -59 -163t-156 -62t-156 62t-59 163zM584 0v696h164v-696h-164zM778 358l281 338h207l-320 -337l355 -359h-231z" />
<glyph unicode="&#x4d0;" horiz-adv-x="942" d="M31 0l350 983h180l350 -983h-184l-61 205h-390l-61 -205h-184zM256 1321h102q0 -74 31 -119t82 -45t82 45t31 119h102q0 -101 -59 -163t-156 -62t-156 62t-59 163zM311 322h320l-160 536z" />
<glyph unicode="&#x4d1;" d="M51 348q0 157 86.5 252.5t227.5 95.5h147l82 -114l20 114h144v-508l6 -192l-150 8l-8 150q-40 -76 -103.5 -120t-137.5 -44q-141 0 -227.5 98.5t-86.5 259.5zM195 1075h102q0 -74 31 -119t82 -45t81.5 45t30.5 119h103q0 -101 -59 -163t-156 -62t-156 62t-59 163z M221 348q0 -106 48.5 -170.5t127.5 -64.5q82 0 139.5 72t57.5 173v215h-197q-79 0 -127.5 -62t-48.5 -163z" />
<glyph unicode="&#x4d2;" horiz-adv-x="942" d="M31 0l350 983h180l350 -983h-184l-61 205h-390l-61 -205h-184zM215 1157v121q0 15 4 18.5t19 3.5h131v-120q0 -15 -4 -19t-19 -4h-131zM311 322h320l-160 536zM532 1157v121q0 15 4 18.5t19 3.5h131v-120q0 -15 -3.5 -19t-18.5 -4h-132z" />
<glyph unicode="&#x4d3;" d="M51 348q0 157 86.5 252.5t227.5 95.5h147l82 -114l20 114h144v-508l6 -192l-150 8l-8 150q-40 -76 -103.5 -120t-137.5 -44q-141 0 -227.5 98.5t-86.5 259.5zM174 911v121q0 15 4 19t19 4h131v-121q0 -15 -4 -19t-19 -4h-131zM221 348q0 -106 48.5 -170.5t127.5 -64.5 q82 0 139.5 72t57.5 173v215h-197q-79 0 -127.5 -62t-48.5 -163zM492 911v121q0 15 3.5 19t18.5 4h131v-121q0 -15 -3.5 -19t-18.5 -4h-131z" />
<glyph unicode="&#x4d4;" horiz-adv-x="1208" d="M31 0l329 983h797v-133h-381v-277h299v-122h-299v-318h381v-133h-555v205h-245l-61 88l-81 -293h-184zM306 328h296v522h-149z" />
<glyph unicode="&#x4d5;" horiz-adv-x="1253" d="M51 205q0 92 75.5 148.5t197.5 56.5h208v71q0 52 -47 82.5t-139 30.5q-54 0 -114 -15.5t-99 -43.5v146q97 26 213 26q99 0 175 -28t116 -78q92 106 244 106q143 0 230 -82.5t87 -218.5v-48q0 -61 -61 -61h-438q25 -184 212 -184q119 0 195 54v-151q-88 -26 -195 -26 q-123 0 -211.5 59t-124.5 163q-37 -100 -111.5 -161t-164.5 -61q-112 0 -180 59t-68 156zM217 195q0 -41 31 -67t82 -26q84 0 143 81t59 196v25l-112 -107h-84q-53 0 -86 -28t-33 -74zM696 348q0 -19 1 -28l81 90h277q0 90 -44.5 137t-129.5 47q-90 0 -137.5 -63t-47.5 -183 z" />
<glyph unicode="&#x4d6;" horiz-adv-x="778" d="M113 0v983h614v-133h-440v-277h358v-122h-358v-318h440v-133h-614zM225 1321h103q0 -74 30.5 -119t81.5 -45t82 45t31 119h102q0 -101 -59 -163t-156 -62t-156 62t-59 163z" />
<glyph unicode="&#x4d7;" horiz-adv-x="772" d="M51 348q0 161 95.5 260t252.5 99q143 0 230.5 -82.5t87.5 -218.5v-48q0 -61 -62 -61h-437q25 -184 212 -184q118 0 195 54v-151q-89 -26 -195 -26q-170 0 -274.5 98.5t-104.5 259.5zM174 1075h102q0 -74 31 -119t82 -45t82 45t31 119h102q0 -101 -59 -163t-156 -62 t-156 62t-59 163zM215 348q0 -19 1 -28l81 90h276q0 90 -44.5 137t-129.5 47q-90 0 -137 -63t-47 -183z" />
<glyph unicode="&#x4d8;" horiz-adv-x="993" d="M61 434v62q0 61 62 61h635q-17 139 -99.5 221t-207.5 82q-67 0 -142 -13t-114 -41v157q83 30 256 30q217 0 349 -137.5t132 -363.5t-129.5 -364t-341.5 -138q-180 0 -290 122t-110 322zM236 434q0 -157 57.5 -239t167.5 -82q136 0 218.5 104.5t82.5 274.5q0 15 -2 43 l-94 -101h-430z" />
<glyph unicode="&#x4d9;" horiz-adv-x="772" d="M55 291v47q0 61 62 61h437q-12 90 -66 137.5t-146 47.5q-117 0 -195 -55v152q89 26 195 26q170 0 274.5 -99t104.5 -260t-95.5 -259.5t-252.5 -98.5q-143 0 -230.5 82.5t-87.5 218.5zM199 287q0 -90 44.5 -137.5t129.5 -47.5q90 0 137 63t47 183q0 19 -1 28l-81 -89h-276 z" />
<glyph unicode="&#x4da;" horiz-adv-x="993" d="M61 434v62q0 61 62 61h635q-17 139 -99.5 221t-207.5 82q-67 0 -142 -13t-114 -41v157q83 30 256 30q217 0 349 -137.5t132 -363.5t-129.5 -364t-341.5 -138q-180 0 -290 122t-110 322zM231 1159v121q0 15 4 19t19 4h131v-121q0 -15 -4 -19t-19 -4h-131zM236 434 q0 -157 57.5 -239t167.5 -82q136 0 218.5 104.5t82.5 274.5q0 15 -2 43l-94 -101h-430zM549 1159v121q0 15 3.5 19t18.5 4h131v-121q0 -15 -3.5 -19t-18.5 -4h-131z" />
<glyph unicode="&#x4db;" horiz-adv-x="772" d="M55 291v47q0 61 62 61h437q-12 90 -66 137.5t-146 47.5q-117 0 -195 -55v152q89 26 195 26q170 0 274.5 -99t104.5 -260t-95.5 -259.5t-252.5 -98.5q-143 0 -230.5 82.5t-87.5 218.5zM143 911v121q0 15 4 19t19 4h131v-121q0 -15 -4 -19t-19 -4h-131zM199 287 q0 -90 44.5 -137.5t129.5 -47.5q90 0 137 63t47 183q0 19 -1 28l-81 -89h-276zM461 911v121q0 15 3.5 19t18.5 4h131v-121q0 -15 -3.5 -19t-18.5 -4h-131z" />
<glyph unicode="&#x4dc;" horiz-adv-x="1415" d="M31 0l405 502l-370 481h210l324 -482l-335 -501h-234zM414 1157v121q0 15 3.5 18.5t18.5 3.5h131v-120q0 -15 -3.5 -19t-18.5 -4h-131zM621 0v983h174v-983h-174zM731 1157v121q0 15 4 18.5t19 3.5h131v-120q0 -15 -4 -19t-19 -4h-131zM815 501l324 482h211l-371 -481 l405 -502h-234z" />
<glyph unicode="&#x4dd;" horiz-adv-x="1331" d="M31 0l354 359l-320 337h207l281 -338l-292 -358h-230zM369 911v121q0 15 3.5 19t18.5 4h131v-121q0 -15 -3.5 -19t-18.5 -4h-131zM584 0v696h164v-696h-164zM686 911v121q0 15 4 19t19 4h131v-121q0 -15 -4 -19t-19 -4h-131zM778 358l281 338h207l-320 -337l355 -359 h-231z" />
<glyph unicode="&#x4de;" horiz-adv-x="757" d="M51 16v166q40 -28 108 -43.5t128 -15.5q106 0 170.5 45t64.5 119q0 88 -57 141t-150 53h-120v133h71q89 0 152 42.5t63 101.5q0 46 -54 74t-142 28q-52 0 -113.5 -16t-99.5 -43v166q89 26 215 26q161 0 259.5 -64.5t98.5 -170.5q0 -67 -62 -122t-163 -82q125 -24 206 -98 t81 -169q0 -134 -115.5 -215.5t-304.5 -81.5q-132 0 -236 26zM92 1157v121q0 15 4 18.5t19 3.5h131v-120q0 -15 -4 -19t-19 -4h-131zM410 1157v121q0 15 3.5 18.5t18.5 3.5h131v-120q0 -15 -3.5 -19t-18.5 -4h-131z" />
<glyph unicode="&#x4df;" horiz-adv-x="665" d="M51 16v145q40 -29 106.5 -44t125.5 -15q71 0 114 25t43 66q0 114 -166 114h-102v123h74q76 0 120 25t44 73q0 29 -39 47t-102 18q-52 0 -108.5 -15.5t-94.5 -42.5v145q102 26 191 26q138 0 222 -49t84 -129q0 -51 -50.5 -92.5t-132.5 -62.5q103 -15 168.5 -63t65.5 -115 q0 -92 -93 -148.5t-245 -56.5q-121 0 -225 26zM51 911v121q0 15 4 19t19 4h131v-121q0 -15 -4 -19t-19 -4h-131zM369 911v121q0 15 3.5 19t18.5 4h131v-121q0 -15 -3.5 -19t-18.5 -4h-131z" />
<glyph unicode="&#x4e0;" horiz-adv-x="2048" d="M129 385v229h279v-229h-279z" />
<glyph unicode="&#x4e1;" horiz-adv-x="2048" d="M129 385v229h279v-229h-279z" />
<glyph unicode="&#x4e2;" horiz-adv-x="962" d="M113 0v983h163v-675l420 675h154v-983h-164v663l-420 -663h-153zM252 1116v90q0 15 3.5 19t18.5 4h355v-90q0 -15 -4 -19t-19 -4h-354z" />
<glyph unicode="&#x4e3;" d="M102 0v696h154v-444l399 444h103v-696h-154v434l-399 -434h-103zM221 870v91q0 15 4 18.5t19 3.5h354v-90q0 -15 -4 -19t-19 -4h-354z" />
<glyph unicode="&#x4e4;" horiz-adv-x="962" d="M113 0v983h163v-675l420 675h154v-983h-164v663l-420 -663h-153zM205 1157v121q0 15 3.5 18.5t18.5 3.5h131v-120q0 -15 -3.5 -19t-18.5 -4h-131zM522 1157v121q0 15 4 18.5t19 3.5h131v-120q0 -15 -4 -19t-19 -4h-131z" />
<glyph unicode="&#x4e5;" d="M102 0v696h154v-444l399 444h103v-696h-154v434l-399 -434h-103zM174 911v121q0 15 4 19t19 4h131v-121q0 -15 -4 -19t-19 -4h-131zM492 911v121q0 15 3.5 19t18.5 4h131v-121q0 -15 -3.5 -19t-18.5 -4h-131z" />
<glyph unicode="&#x4e6;" horiz-adv-x="1003" d="M61 492q0 226 121.5 363.5t319.5 137.5t319 -137.5t121 -363.5t-121 -364t-319 -138t-319.5 138t-121.5 364zM242 492q0 -166 71.5 -267.5t188.5 -101.5t188.5 101.5t71.5 267.5t-71.5 267t-188.5 101t-188.5 -101t-71.5 -267zM246 1157v121q0 15 3.5 18.5t18.5 3.5h131 v-120q0 -15 -3.5 -19t-18.5 -4h-131zM563 1157v121q0 15 4 18.5t19 3.5h131v-120q0 -15 -4 -19t-19 -4h-131z" />
<glyph unicode="&#x4e7;" horiz-adv-x="819" d="M51 348q0 161 99 260t260 99t259.5 -99t98.5 -260t-98.5 -259.5t-259.5 -98.5t-260 98.5t-99 259.5zM154 911v121q0 15 3.5 19t18.5 4h131v-121q0 -15 -3.5 -19t-18.5 -4h-131zM221 348q0 -106 52 -170.5t137 -64.5t136.5 64.5t51.5 170.5t-51.5 171t-136.5 65t-137 -65 t-52 -171zM471 911v121q0 15 4 19t19 4h131v-121q0 -15 -4 -19t-19 -4h-131z" />
<glyph unicode="&#x4e8;" horiz-adv-x="1003" d="M61 492q0 226 121.5 363.5t319.5 137.5t319 -137.5t121 -363.5t-121 -364t-319 -138t-319.5 138t-121.5 364zM240 436q12 -144 82.5 -230.5t179.5 -86.5t179.5 86.5t82.5 230.5h-524zM240 547h524q-12 144 -82.5 230.5t-179.5 86.5t-179.5 -86.5t-82.5 -230.5z" />
<glyph unicode="&#x4e9;" horiz-adv-x="819" d="M51 348q0 161 99 260t260 99t259.5 -99t98.5 -260t-98.5 -259.5t-259.5 -98.5t-260 98.5t-99 259.5zM220 299q12 -87 63 -138.5t127 -51.5t126.5 51.5t62.5 138.5h-379zM220 397h379q-12 87 -62.5 139t-126.5 52t-127 -52t-63 -139z" />
<glyph unicode="&#x4ea;" horiz-adv-x="1003" d="M61 492q0 226 121.5 363.5t319.5 137.5t319 -137.5t121 -363.5t-121 -364t-319 -138t-319.5 138t-121.5 364zM240 436q12 -144 82.5 -230.5t179.5 -86.5t179.5 86.5t82.5 230.5h-524zM240 547h524q-12 144 -82.5 230.5t-179.5 86.5t-179.5 -86.5t-82.5 -230.5zM246 1157 v121q0 15 3.5 18.5t18.5 3.5h131v-120q0 -15 -3.5 -19t-18.5 -4h-131zM563 1157v121q0 15 4 18.5t19 3.5h131v-120q0 -15 -4 -19t-19 -4h-131z" />
<glyph unicode="&#x4eb;" horiz-adv-x="819" d="M51 348q0 161 99 260t260 99t259.5 -99t98.5 -260t-98.5 -259.5t-259.5 -98.5t-260 98.5t-99 259.5zM174 911v121q0 15 4 19t19 4h131v-121q0 -15 -4 -19t-19 -4h-131zM220 299q12 -87 63 -138.5t127 -51.5t126.5 51.5t62.5 138.5h-379zM220 397h379q-12 87 -62.5 139 t-126.5 52t-127 -52t-63 -139zM492 911v121q0 15 3.5 19t18.5 4h131v-121q0 -15 -3.5 -19t-18.5 -4h-131z" />
<glyph unicode="&#x4ec;" horiz-adv-x="819" d="M72 16v176q83 -59 204 -59q120 0 199 80.5t95 216.5h-355v123h355q-17 136 -101.5 216.5t-212.5 80.5q-101 0 -184 -59v176q110 26 204 26q217 0 349.5 -137.5t132.5 -363.5t-132.5 -364t-349.5 -138q-94 0 -204 26zM86 1157v121q0 15 4 18.5t19 3.5h131v-120 q0 -15 -4 -19t-19 -4h-131zM403 1157v121q0 15 4 18.5t19 3.5h131v-120q0 -15 -3.5 -19t-18.5 -4h-132z" />
<glyph unicode="&#x4ed;" horiz-adv-x="696" d="M61 16v161q76 -54 195 -54q82 0 139 44t74 120h-295v123h295q-17 75 -74 119t-139 44q-119 0 -195 -54v162q110 26 195 26q175 0 282 -99t107 -260t-107 -259.5t-282 -98.5q-85 0 -195 26zM61 911v121q0 15 4 19t19 4h131v-121q0 -15 -3.5 -19t-18.5 -4h-132zM379 911 v121q0 15 3.5 19t18.5 4h131v-121q0 -15 -3.5 -19t-18.5 -4h-131z" />
<glyph unicode="&#x4ee;" horiz-adv-x="829" d="M31 983h196l219 -524l168 524h185l-263 -656q-42 -103 -85.5 -167.5t-102 -102.5t-127.5 -52.5t-170 -14.5v143q60 0 95.5 2.5t75 11.5t65 27t50 49.5t45.5 78.5zM236 1116v90q0 15 3.5 19t18.5 4h354v-90q0 -15 -3.5 -19t-18.5 -4h-354z" />
<glyph unicode="&#x4ef;" horiz-adv-x="798" d="M20 -266q202 0 334 274l-323 688h192l197 -528l155 528h193l-289 -714q-159 -392 -459 -392v144zM195 870v91q0 15 3.5 18.5t18.5 3.5h354v-90q0 -15 -3.5 -19t-18.5 -4h-354z" />
<glyph unicode="&#x4f0;" horiz-adv-x="829" d="M31 983h196l219 -524l168 524h185l-263 -656q-42 -103 -85.5 -167.5t-102 -102.5t-127.5 -52.5t-170 -14.5v143q60 0 95.5 2.5t75 11.5t65 27t50 49.5t45.5 78.5zM188 1157v121q0 15 4 18.5t19 3.5h131v-120q0 -15 -4 -19t-19 -4h-131zM506 1157v121q0 15 3.5 18.5 t18.5 3.5h131v-120q0 -15 -3.5 -19t-18.5 -4h-131z" />
<glyph unicode="&#x4f1;" horiz-adv-x="798" d="M20 -266q202 0 334 274l-323 688h192l197 -528l155 528h193l-289 -714q-159 -392 -459 -392v144zM147 911v121q0 15 4 19t19 4h131v-121q0 -15 -3.5 -19t-18.5 -4h-132zM465 911v121q0 15 3.5 19t18.5 4h131v-121q0 -15 -3.5 -19t-18.5 -4h-131z" />
<glyph unicode="&#x4f2;" horiz-adv-x="829" d="M31 983h196l219 -524l168 524h185l-263 -656q-42 -103 -85.5 -167.5t-102 -102.5t-127.5 -52.5t-170 -14.5v143q60 0 95.5 2.5t75 11.5t65 27t50 49.5t45.5 78.5zM178 1118l207 223h80v-79l-272 -166zM465 1118l207 223h80v-79l-273 -166z" />
<glyph unicode="&#x4f3;" horiz-adv-x="798" d="M20 -266q202 0 334 274l-323 688h192l197 -528l155 528h193l-289 -714q-159 -392 -459 -392v144zM137 872l207 224h80v-80l-272 -166zM424 872l207 224h80v-80l-273 -166z" />
<glyph unicode="&#x4f4;" horiz-adv-x="911" d="M92 635v348h164v-348q0 -51 34.5 -82t90.5 -31h243h1v461h174v-983h-174v379h-250q-128 0 -205.5 70.5t-77.5 185.5zM184 1157v121q0 15 4 18.5t19 3.5h131v-120q0 -15 -4 -19t-19 -4h-131zM502 1157v121q0 15 3.5 18.5t18.5 3.5h131v-120q0 -15 -3.5 -19t-18.5 -4h-131z " />
<glyph unicode="&#x4f5;" horiz-adv-x="819" d="M82 471v225h164v-225q0 -51 34.5 -82t90.5 -31h182v338h164v-696h-164v236h-188q-127 0 -205 64.5t-78 170.5zM133 911v121q0 15 4 19t19 4h131v-121q0 -15 -4 -19t-19 -4h-131zM451 911v121q0 15 3.5 19t18.5 4h131v-121q0 -15 -3.5 -19t-18.5 -4h-131z" />
<glyph unicode="&#x4f8;" horiz-adv-x="1187" d="M113 0v983h174v-430h125q174 0 280.5 -76t106.5 -201q0 -124 -106.5 -200t-280.5 -76h-299zM287 123h133q90 0 145.5 42t55.5 111t-55.5 111.5t-145.5 42.5h-133v-307zM313 1157v121q0 15 4 18.5t19 3.5h131v-120q0 -15 -4 -19t-19 -4h-131zM631 1157v121q0 15 3.5 18.5 t18.5 3.5h131v-120q0 -15 -3.5 -19t-18.5 -4h-131zM901 0v983h174v-983h-174z" />
<glyph unicode="&#x4f9;" horiz-adv-x="1044" d="M102 0v696h164v-235h113q148 0 238 -64t90 -168q0 -103 -90 -166t-238 -63h-277zM266 123h119q68 0 110 29t42 77q0 49 -42 79t-110 30h-119v-215zM297 911v121q0 15 3.5 19t18.5 4h132v-121q0 -15 -4 -19t-19 -4h-131zM614 911v121q0 15 4 19t19 4h131v-121 q0 -15 -4 -19t-19 -4h-131zM799 0v696h143v-696h-143z" />
<glyph unicode="&#x2000;" horiz-adv-x="717" />
<glyph unicode="&#x2001;" horiz-adv-x="1434" />
<glyph unicode="&#x2002;" horiz-adv-x="717" />
<glyph unicode="&#x2003;" horiz-adv-x="1434" />
<glyph unicode="&#x2004;" horiz-adv-x="478" />
<glyph unicode="&#x2005;" horiz-adv-x="358" />
<glyph unicode="&#x2006;" horiz-adv-x="239" />
<glyph unicode="&#x2007;" horiz-adv-x="239" />
<glyph unicode="&#x2008;" horiz-adv-x="179" />
<glyph unicode="&#x2009;" horiz-adv-x="286" />
<glyph unicode="&#x200a;" horiz-adv-x="79" />
<glyph unicode="&#x2010;" horiz-adv-x="491" d="M41 389v133h410v-133h-410z" />
<glyph unicode="&#x2011;" horiz-adv-x="491" d="M41 389v133h410v-133h-410z" />
<glyph unicode="&#x2012;" horiz-adv-x="491" d="M41 389v133h410v-133h-410z" />
<glyph unicode="&#x2013;" horiz-adv-x="942" d="M41 389v133h860v-133h-860z" />
<glyph unicode="&#x2014;" horiz-adv-x="1884" d="M41 389v133h1802v-133h-1802z" />
<glyph unicode="&#x2018;" horiz-adv-x="337" d="M61 752v84q0 43 39 98l125 172l56 -31l-76 -166l41 -14v-102q0 -29 -6 -35t-35 -6h-144z" />
<glyph unicode="&#x2019;" horiz-adv-x="337" d="M57 782l76 166l-41 15v102q0 29 6 35t35 6h143v-84q0 -44 -38 -98l-125 -172z" />
<glyph unicode="&#x201a;" horiz-adv-x="337" d="M57 -180l76 166l-41 14v102q0 29 6 35t35 6h143v-84q0 -44 -38 -98l-125 -172z" />
<glyph unicode="&#x201c;" horiz-adv-x="604" d="M61 752v84q0 43 39 98l125 172l56 -31l-76 -166l41 -14v-102q0 -29 -6 -35t-35 -6h-144zM328 752v84q0 43 39 98l125 172l55 -31l-76 -166l41 -14v-102q0 -29 -6 -35t-35 -6h-143z" />
<glyph unicode="&#x201d;" horiz-adv-x="604" d="M57 782l76 166l-41 15v102q0 29 6 35t35 6h143v-84q0 -44 -38 -98l-125 -172zM324 782l75 166l-41 15v102q0 29 6 35t35 6h144v-84q0 -43 -39 -98l-125 -172z" />
<glyph unicode="&#x201e;" horiz-adv-x="604" d="M57 -180l76 166l-41 14v102q0 29 6 35t35 6h143v-84q0 -44 -38 -98l-125 -172zM324 -180l75 166l-41 14v102q0 29 6 35t35 6h144v-84q0 -43 -39 -98l-125 -172z" />
<glyph unicode="&#x2026;" horiz-adv-x="921" d="M102 -10v131q0 15 4 18.5t19 3.5h151v-131q0 -15 -3.5 -18.5t-18.5 -3.5h-152zM379 -10v131q0 15 3.5 18.5t18.5 3.5h152v-131q0 -15 -4 -18.5t-19 -3.5h-151zM655 -10v131q0 15 4 18.5t19 3.5h151v-131q0 -15 -3.5 -18.5t-18.5 -3.5h-152z" />
<glyph unicode="&#x202f;" horiz-adv-x="286" />
<glyph unicode="&#x2039;" horiz-adv-x="382" d="M41 369l225 270l25 -158l-105 -112l105 -113l-25 -158z" />
<glyph unicode="&#x203a;" horiz-adv-x="382" d="M92 256l105 113l-105 112l25 158l225 -270l-225 -271z" />
<glyph unicode="&#x205f;" horiz-adv-x="358" />
<glyph unicode="&#x20ac;" horiz-adv-x="931" d="M31 317l22 93h126q-5 43 -5 82q0 27 1 40h-109l22 93h100q37 171 161 269.5t306 98.5q95 0 205 -26v-176q-83 59 -184 59q-110 0 -188.5 -60t-110.5 -165h356l-22 -93h-351q-2 -26 -2 -40q0 -36 7 -82h313l-23 -93h-265q35 -87 104 -135.5t161 -48.5q122 0 205 59v-176 q-110 -26 -205 -26q-171 0 -291.5 87t-165.5 240h-167z" />
<glyph unicode="&#x2122;" horiz-adv-x="1044" d="M473 385v125h137v-125h-137z" />
</font>
</defs>
</svg>
