<?xml version="1.0" standalone="no"?>
<!DOCTYPE svg PUBLIC "-//W3C//DTD SVG 1.1//EN" "http://www.w3.org/Graphics/SVG/1.1/DTD/svg11.dtd" >
<svg xmlns="http://www.w3.org/2000/svg">
<metadata></metadata>
<defs>
<font id="glametrixlight" horiz-adv-x="778" >
<font-face units-per-em="2048" ascent="1434" descent="-614" />
<missing-glyph horiz-adv-x="368" />
<glyph unicode="gj" horiz-adv-x="696" d="M0 0v696h696v-696h-696z" />
<glyph horiz-adv-x="2048" />
<glyph horiz-adv-x="2048" />
<glyph unicode="&#xd;" horiz-adv-x="2048" />
<glyph unicode=" "  horiz-adv-x="368" />
<glyph unicode="&#x09;" horiz-adv-x="368" />
<glyph unicode="&#xa0;" horiz-adv-x="368" />
<glyph unicode="!" horiz-adv-x="286" d="M102 -10v90q0 15 4 18.5t19 3.5h70v-90q0 -15 -4 -18.5t-19 -3.5h-70zM104 287v696h89v-696h-89z" />
<glyph unicode="&#x22;" horiz-adv-x="430" d="M82 717v266h82v-266h-82zM266 717v266h82v-266h-82z" />
<glyph unicode="#" d="M61 315v72h152v209h-152v72h152v233h72v-233h209v233h71v-233h152v-72h-152v-209h152v-72h-152v-233h-71v233h-209v-233h-72v233h-152zM285 387h209v209h-209v-209z" />
<glyph unicode="$" horiz-adv-x="675" d="M123 184v92q111 -71 225 -71q92 0 143.5 33t51.5 94q0 23 -12.5 43t-28.5 32.5t-46 24.5t-50 18.5t-55 15.5q-98 26 -163 75.5t-65 124.5q0 70 58 119.5t157 61.5v177h61v-174q81 -1 185 -31v-92q-83 51 -205 51q-76 0 -125 -30.5t-49 -81.5q0 -23 12.5 -42.5t28 -31 t46.5 -24t49 -18t55 -15.5q39 -10 68.5 -20.5t61 -27t52 -36.5t34 -49t13.5 -64q0 -83 -61 -138t-165 -65v-176h-61v175q-96 5 -215 50z" />
<glyph unicode="%" horiz-adv-x="1443" d="M82 741q0 113 69 182.5t181 69.5q113 0 182.5 -69.5t69.5 -182.5t-69.5 -182.5t-182.5 -69.5q-112 0 -181 69.5t-69 182.5zM164 741q0 -86 46 -138t122 -52t123 52.5t47 137.5q0 86 -47 138.5t-123 52.5t-122 -52.5t-46 -138.5zM299 43l789 942l55 -46l-789 -942z M860 240q0 113 69 182.5t181 69.5q113 0 182.5 -69.5t69.5 -182.5t-69.5 -182.5t-182.5 -69.5q-112 0 -181 69.5t-69 182.5zM942 240q0 -86 46 -138.5t122 -52.5t123 52.5t47 138.5t-47 138t-123 52t-122 -52t-46 -138z" />
<glyph unicode="&#x26;" horiz-adv-x="1013" d="M51 256q0 72 57.5 140.5t196.5 145.5q-100 107 -100 226q0 101 61 163t158 62q96 0 153.5 -59t57.5 -156h-82q0 70 -35 112t-94 42q-60 0 -98.5 -45.5t-38.5 -118.5q0 -117 116 -221l310 -274q75 125 75 284h82q0 -187 -97 -336l179 -160v-96l-223 198 q-70 -82 -162.5 -127.5t-197.5 -45.5q-144 0 -231 75t-87 191zM133 258q0 -83 67 -140t169 -57q88 0 166.5 40.5t136.5 112.5l-308 273q-119 -63 -175 -118.5t-56 -110.5z" />
<glyph unicode="'" horiz-adv-x="245" d="M82 717v266h82v-266h-82z" />
<glyph unicode="(" horiz-adv-x="430" d="M61 492q0 249 80 475t226 374l32 -24q-118 -156 -181.5 -373.5t-63.5 -451.5q0 -239 63 -457t182 -369l-32 -24q-146 148 -226 375t-80 475z" />
<glyph unicode=")" horiz-adv-x="430" d="M31 -334q119 151 182 369t63 457q0 234 -63.5 451.5t-181.5 373.5l32 24q146 -148 226 -374t80 -475q0 -248 -80 -475t-226 -375z" />
<glyph unicode="*" horiz-adv-x="593" d="M50 781l19 59l22 -8l150 -71l-6 -18l-163 31zM125 549l14 19l114 120l15 -11l-79 -145l-14 -19zM266 960v23h62v-23l-22 -165h-18zM326 677l15 11l114 -120l14 -19l-50 -36l-14 19zM353 761l150 71l22 8l19 -59l-22 -7l-163 -31z" />
<glyph unicode="+" horiz-adv-x="696" d="M41 459v65h274v267h66v-267h274v-65h-274v-273h-66v273h-274z" />
<glyph unicode="," horiz-adv-x="296" d="M57 -168l72 156l-37 12v72q0 29 6 35t35 6h72v-54q0 -39 -39 -98l-88 -139z" />
<glyph unicode="-" horiz-adv-x="491" d="M41 410v71h410v-71h-410z" />
<glyph unicode="." horiz-adv-x="286" d="M102 -10v90q0 15 4 18.5t19 3.5h70v-90q0 -15 -4 -18.5t-19 -3.5h-70z" />
<glyph unicode="/" horiz-adv-x="819" d="M27 -84l704 1188l62 -36l-704 -1188z" />
<glyph unicode="0" horiz-adv-x="798" d="M61 492q0 226 93 363.5t245 137.5t245 -137.5t93 -363.5t-93 -364t-245 -138t-245 138t-93 364zM154 492q0 -196 67.5 -315.5t177.5 -119.5t178 119.5t68 315.5q0 195 -68 314.5t-178 119.5t-177.5 -119t-67.5 -315z" />
<glyph unicode="1" horiz-adv-x="389" d="M51 764v65q75 0 114.5 33.5t39.5 120.5h51v-983h-88v764h-117z" />
<glyph unicode="2" horiz-adv-x="645" d="M31 0q0 46 16.5 95.5t38 88.5t61.5 88.5t68.5 80.5t76.5 81q52 54 79.5 84.5t62 75t49.5 82t15 72.5q0 81 -55.5 130.5t-145.5 49.5q-118 0 -215 -97v99q112 63 215 63q129 0 208 -67.5t79 -177.5q0 -48 -21 -98.5t-65.5 -107t-79.5 -94.5t-97 -100q-60 -60 -92 -94 t-66.5 -81.5t-45.5 -84.5h467v-88h-553z" />
<glyph unicode="3" horiz-adv-x="634" d="M51 16v96q90 -57 185 -57q116 0 186 58t70 153q0 112 -65 180t-171 68h-82v68h31q110 0 178 54t68 142q0 68 -59 109t-156 41q-87 0 -164 -55v94q89 26 164 26q133 0 214.5 -59t81.5 -156q0 -79 -58.5 -139t-152.5 -85q114 -20 188.5 -99.5t74.5 -188.5 q0 -124 -95.5 -200t-252.5 -76q-94 0 -185 26z" />
<glyph unicode="4" horiz-adv-x="686" d="M31 260v63l407 660h133v-651h84v-72h-84v-260h-88v260h-452zM119 332h364v600z" />
<glyph unicode="5" horiz-adv-x="675" d="M72 16v98q83 -59 194 -59q122 0 196.5 69.5t74.5 182.5q0 97 -74.5 156t-196.5 59h-164v461h461v-88h-395v-305h102q160 0 257.5 -78t97.5 -205q0 -142 -99 -229.5t-260 -87.5q-89 0 -194 26z" />
<glyph unicode="6" horiz-adv-x="757" d="M61 492q0 226 103.5 363.5t273.5 137.5q87 0 176 -28v-90q-80 57 -172 57q-133 0 -214 -121t-81 -319q0 -6 0.5 -17t0.5 -17q36 84 110.5 135.5t161.5 51.5q129 0 208 -90t79 -238t-81.5 -237.5t-215.5 -89.5q-157 0 -253 138t-96 364zM162 334q26 -130 91 -204.5 t157 -74.5q94 0 151 72t57 190t-57 190.5t-151 72.5q-98 0 -172 -72.5t-76 -173.5z" />
<glyph unicode="7" horiz-adv-x="655" d="M41 895v88h594q-14 -17 -37.5 -48t-83.5 -132.5t-106 -209.5t-83.5 -270.5t-37.5 -322.5h-92q0 143 32 285.5t85.5 260t100 198.5t97.5 151h-469z" />
<glyph unicode="8" d="M51 266q0 87 64.5 156.5t166.5 96.5q-83 27 -134.5 89.5t-51.5 139.5q0 110 80.5 177.5t212.5 67.5t212.5 -67.5t80.5 -177.5q0 -77 -51.5 -139.5t-134.5 -89.5q102 -27 166.5 -96.5t64.5 -156.5q0 -124 -93 -200t-245 -76t-245 76t-93 200zM143 266q0 -95 68 -153 t178 -58t178 58t68 153q0 88 -72 150.5t-174 62.5t-174 -62.5t-72 -150.5zM182 748q0 -82 60.5 -139.5t146.5 -57.5t146.5 57.5t60.5 139.5q0 81 -57 130.5t-150 49.5t-150 -49.5t-57 -130.5z" />
<glyph unicode="9" horiz-adv-x="757" d="M51 666q0 148 81.5 237.5t215.5 89.5q157 0 252.5 -137.5t95.5 -363.5t-103.5 -364t-273.5 -138q-87 0 -176 28v90q80 -57 172 -57q133 0 214 121.5t81 319.5v33q-36 -84 -110.5 -135.5t-161.5 -51.5q-129 0 -208 90t-79 238zM139 666q0 -118 57.5 -190.5t151.5 -72.5 q98 0 172 72.5t76 173.5q-26 130 -91 204.5t-157 74.5q-94 0 -151.5 -72t-57.5 -190z" />
<glyph unicode=":" horiz-adv-x="368" d="M102 -10v90q0 15 4 18.5t19 3.5h70v-90q0 -15 -4 -18.5t-19 -3.5h-70zM102 522v90q0 15 4 19t19 4h70v-90q0 -15 -4 -19t-19 -4h-70z" />
<glyph unicode=";" horiz-adv-x="327" d="M57 -168l72 156l-37 12v72q0 29 6 35t35 6h72v-54q0 -39 -39 -98l-88 -139zM102 522v90q0 15 4 19t19 4h70v-90q0 -15 -4 -19t-19 -4h-70z" />
<glyph unicode="&#x3c;" horiz-adv-x="634" d="M41 492l512 364v-88l-389 -276l389 -277v-88z" />
<glyph unicode="=" horiz-adv-x="716" d="M61 317v72h594v-72h-594zM61 604v72h594v-72h-594z" />
<glyph unicode="&#x3e;" horiz-adv-x="634" d="M82 127v88l389 277l-389 276v88l512 -364z" />
<glyph unicode="?" horiz-adv-x="675" d="M92 829v101q108 63 215 63q120 0 193 -62t73 -163q0 -48 -17.5 -89.5t-43.5 -70.5t-56.5 -63.5t-56.5 -67t-43.5 -82.5t-17.5 -108h-92q0 79 24 143t59 105t69.5 76.5t58.5 74.5t24 82q0 72 -48 116t-126 44q-118 0 -215 -99zM246 -10v90q0 15 3.5 18.5t18.5 3.5h70v-90 q0 -15 -4 -18.5t-19 -3.5h-69z" />
<glyph unicode="@" horiz-adv-x="1372" d="M61 348q0 129 50.5 246.5t135.5 202.5t202.5 135.5t246.5 50.5q277 0 446 -163.5t169 -430.5q0 -153 -81 -258.5t-196 -105.5q-75 0 -117.5 54t-42.5 145q-46 -89 -126 -144t-168 -55q-108 0 -174 74.5t-66 195.5q0 165 95 266t252 101h154l57 -54l15 54h71l-38 -439 q-1 -8 -1 -22q0 -53 22.5 -84t66.5 -31q85 0 145 88.5t60 214.5q0 235 -149.5 378.5t-393.5 143.5q-153 0 -282.5 -75.5t-205 -205t-75.5 -282.5q0 -254 154.5 -408.5t408.5 -154.5q187 0 321 79l36 -61q-151 -90 -357 -90q-286 0 -460.5 174.5t-174.5 460.5zM426 299 q0 -96 46.5 -154.5t123.5 -58.5q103 0 187 84t94 202v1l20 227h-225q-111 0 -178.5 -82.5t-67.5 -218.5z" />
<glyph unicode="A" horiz-adv-x="860" d="M31 0l356 983h86l356 -983h-98l-74 225h-454l-74 -225h-98zM225 291h410l-205 620z" />
<glyph unicode="B" horiz-adv-x="788" d="M113 0v983h235q148 0 238 -68t90 -178q0 -75 -58 -135.5t-151 -85.5q117 -20 193.5 -89.5t76.5 -160.5q0 -120 -95.5 -193t-252.5 -73h-276zM201 66h188q115 0 185.5 55t70.5 145q0 84 -81.5 148.5t-184.5 64.5h-178v-413zM201 545h147q101 0 172.5 56t71.5 136 q0 81 -67.5 131t-176.5 50h-147v-373z" />
<glyph unicode="C" horiz-adv-x="757" d="M61 492q0 226 118.5 363.5t312.5 137.5q102 0 194 -30v-94q-36 24 -92.5 39.5t-101.5 15.5q-152 0 -245 -119t-93 -313t93 -313.5t245 -119.5q45 0 101.5 15.5t92.5 39.5v-94q-92 -30 -194 -30q-194 0 -312.5 138t-118.5 364z" />
<glyph unicode="D" horiz-adv-x="880" d="M113 0v983h245q207 0 334 -135t127 -356t-127 -356.5t-334 -135.5h-245zM201 66h168q161 0 259.5 117t98.5 309t-98.5 309t-259.5 117h-168v-852z" />
<glyph unicode="E" horiz-adv-x="686" d="M113 0v983h522v-65h-434v-373h352v-66h-352v-413h434v-66h-522z" />
<glyph unicode="F" horiz-adv-x="665" d="M113 0v983h501v-65h-413v-394h331v-65h-331v-459h-88z" />
<glyph unicode="G" horiz-adv-x="823" d="M61 502q0 221 124 356t327 135q92 0 184 -30v-94q-37 24 -88.5 39.5t-95.5 15.5q-161 0 -259.5 -116t-98.5 -306q0 -201 93 -324t245 -123q88 0 157 29v375h-168v65h256v-495l-41 -9q-107 -30 -204 -30q-194 0 -312.5 141t-118.5 371z" />
<glyph unicode="H" horiz-adv-x="880" d="M113 0v983h88v-438h479v438h88v-983h-88v479h-479v-479h-88z" />
<glyph unicode="I" horiz-adv-x="313" d="M113 0v983h88v-983h-88z" />
<glyph unicode="J" horiz-adv-x="583" d="M61 14v90q67 -49 142 -49q90 0 145 60.5t55 160.5v642h-331v65h420v-696q0 -133 -79 -215t-208 -82q-61 0 -144 24z" />
<glyph unicode="K" horiz-adv-x="757" d="M113 0v983h88v-983h-88zM229 512l357 471h102l-381 -471l420 -512h-113z" />
<glyph unicode="L" horiz-adv-x="655" d="M113 0v983h88v-917h413v-66h-501z" />
<glyph unicode="M" horiz-adv-x="1228" d="M113 0v983h80l421 -805l422 805h80v-983h-84v807l-416 -793h-4l-415 793v-807h-84z" />
<glyph unicode="N" horiz-adv-x="880" d="M113 0v983h71l518 -837v837h66v-983h-72l-518 836v-836h-65z" />
<glyph unicode="O" horiz-adv-x="917" d="M61 492q0 225 109.5 363t288.5 138t288 -137.5t109 -363.5t-109 -364t-288 -138t-288.5 138t-109.5 364zM154 492q0 -196 84 -315.5t221 -119.5t221 119.5t84 315.5t-84 315t-221 119t-221 -119t-84 -315z" />
<glyph unicode="P" horiz-adv-x="788" d="M113 0v983h266q161 0 259.5 -84.5t98.5 -222.5q0 -148 -98.5 -238t-259.5 -90h-180v-348h-86zM199 414h190q115 0 185.5 72t70.5 190q0 109 -70.5 175.5t-185.5 66.5h-190v-504z" />
<glyph unicode="Q" horiz-adv-x="921" d="M61 492q0 225 109.5 363t288.5 138t288 -137.5t109 -363.5q0 -199 -86 -331.5t-232 -162.5l109 -223h-117l-87 267l-31 -50q-160 19 -255.5 154.5t-95.5 345.5zM154 492q0 -189 77 -306.5t207 -127.5l-57 173l39 9l87 -179q119 21 188 137t69 294q0 197 -83 315.5 t-222 118.5t-222 -118.5t-83 -315.5z" />
<glyph unicode="R" horiz-adv-x="798" d="M113 0v983h276q152 0 245 -70.5t93 -185.5q0 -80 -57 -144.5t-149 -93.5q80 -27 127 -85t57 -138l32 -266h-88l-33 266q-11 92 -81 142.5t-175 50.5h-159v-459h-88zM201 524h198q106 0 171 56t65 147q0 85 -65.5 138t-170.5 53h-198v-394z" />
<glyph unicode="S" horiz-adv-x="757" d="M82 63v101q84 -55 148.5 -80t127.5 -25q112 0 181 51.5t69 135.5q0 68 -56 121.5t-180 99.5q-162 59 -226 127t-64 147q0 123 84 187.5t244 64.5q109 0 225 -59v-92q-115 82 -225 82q-117 0 -178.5 -47t-61.5 -136q0 -56 54.5 -100t168.5 -86q174 -63 238.5 -132.5 t64.5 -176.5q0 -115 -93 -185.5t-245 -70.5q-135 0 -276 73z" />
<glyph unicode="T" horiz-adv-x="727" d="M41 918v65h645v-65h-278v-918h-89v918h-278z" />
<glyph unicode="U" horiz-adv-x="819" d="M92 297v686h88v-686q0 -107 63 -172.5t167 -65.5q103 0 166 65.5t63 172.5v686h88v-686q0 -138 -87.5 -222.5t-229.5 -84.5q-143 0 -230.5 84.5t-87.5 222.5z" />
<glyph unicode="V" horiz-adv-x="819" d="M31 983h98l281 -911l280 911h98l-335 -983h-86z" />
<glyph unicode="W" horiz-adv-x="1269" d="M31 983h96l231 -911l228 911h98l227 -911l232 911h96l-285 -983h-90l-229 874l-229 -874h-91z" />
<glyph unicode="X" horiz-adv-x="819" d="M31 0l338 514l-303 469h102l242 -403l241 403h103l-304 -469l338 -514h-108l-270 449l-271 -449h-108z" />
<glyph unicode="Y" horiz-adv-x="819" d="M31 983h108l271 -543l270 543h108l-333 -586v-397h-90v397z" />
<glyph unicode="Z" horiz-adv-x="747" d="M41 0l519 913h-488v70h624l-521 -913h501v-70h-635z" />
<glyph unicode="[" horiz-adv-x="409" d="M123 -410v1803h266v-62h-184v-1679h184v-62h-266z" />
<glyph unicode="\" horiz-adv-x="819" d="M26 1068l62 36l704 -1188l-61 -36z" />
<glyph unicode="]" horiz-adv-x="409" d="M20 -348h185v1679h-185v62h267v-1803h-267v62z" />
<glyph unicode="^" horiz-adv-x="622" d="M55 573l256 420l257 -420h-87l-170 285l-169 -285h-87z" />
<glyph unicode="_" horiz-adv-x="655" d="M20 -543h615v-71h-615v71z" />
<glyph unicode="`" horiz-adv-x="368" d="M78 895v74h63l158 -201l-14 -16z" />
<glyph unicode="a" d="M51 348q0 157 80.5 252.5t212.5 95.5h188l62 -54l10 54h72v-508l6 -192l-68 4l-10 188q-38 -89 -113.5 -143.5t-166.5 -54.5q-122 0 -197.5 98.5t-75.5 259.5zM137 348q0 -133 55.5 -215t145.5 -82q106 0 181 84t75 203v297h-256q-90 0 -145.5 -79t-55.5 -208z" />
<glyph unicode="b" d="M102 0v1106h82v-465l66 55h184q132 0 212.5 -95.5t80.5 -252.5q0 -161 -76 -259.5t-200 -98.5q-90 0 -164.5 55.5t-112.5 146.5l-10 -192h-62zM184 348q0 -123 75 -210t181 -87q90 0 145.5 82t55.5 215q0 129 -55.5 208t-145.5 79h-256v-2v-285z" />
<glyph unicode="c" horiz-adv-x="614" d="M51 348q0 161 90 260t238 99q94 0 174 -27v-90q-77 51 -174 51q-109 0 -175.5 -80.5t-66.5 -212.5t66.5 -212.5t175.5 -80.5q97 0 174 51v-90q-77 -26 -174 -26q-148 0 -238 98.5t-90 259.5z" />
<glyph unicode="d" d="M51 348q0 157 81.5 252.5t215.5 95.5h180l66 -55v465h82v-918l6 -192l-68 4l-10 192q-38 -92 -112 -147t-164 -55q-125 0 -201 98.5t-76 259.5zM137 348q0 -133 55.5 -215t145.5 -82q106 0 181 87t75 210v285v2h-256q-90 0 -145.5 -79t-55.5 -208z" />
<glyph unicode="e" horiz-adv-x="706" d="M51 348q2 162 85.5 260.5t221.5 98.5q145 0 221 -87t76 -253v-9q0 -28 -18 -44.5t-47 -16.5h-454q14 -111 82 -176.5t171 -65.5q97 0 174 51v-90q-77 -26 -174 -26q-149 0 -243.5 99t-94.5 259zM133 315l53 52h387q0 136 -55 207t-160 71q-101 0 -163 -81.5t-62 -215.5 v-33z" />
<glyph unicode="f" horiz-adv-x="491" d="M102 0v860q0 124 59.5 190t172.5 66q60 0 158 -30v-90q-27 19 -73.5 37t-84.5 18q-73 0 -111.5 -49t-38.5 -142v-164h267v-71h-267v-625h-82z" />
<glyph unicode="g" d="M51 348q0 157 80.5 252.5t212.5 95.5h188l62 -54l10 54h72v-778q0 -152 -95.5 -245t-252.5 -93q-66 0 -174 29v86q74 -49 174 -49q120 0 193 75t73 197v252q-41 -82 -112.5 -131t-157.5 -49q-122 0 -197.5 98.5t-75.5 259.5zM139 348q0 -133 55 -215t144 -82 q106 0 181 87t75 210v287h-256q-89 0 -144 -79t-55 -208z" />
<glyph unicode="h" d="M102 0v1106h82v-565q44 76 118.5 121t162.5 45q100 0 160.5 -52.5t60.5 -138.5v-516h-82v500q0 65 -45.5 105t-120.5 40q-105 0 -179.5 -84t-74.5 -203v-358h-82z" />
<glyph unicode="i" horiz-adv-x="286" d="M102 184v512h82v-508l6 -192l-77 8zM102 932v80q0 15 4 18.5t19 3.5h59v-80q0 -15 -3.5 -18.5t-18.5 -3.5h-60z" />
<glyph unicode="j" horiz-adv-x="327" d="M-125 -307q76 -47 156 -47q51 0 81.5 40.5t30.5 108.5v901h82v-880q0 -106 -53 -171t-141 -65q-77 0 -156 27v86zM143 932v80q0 15 4 18.5t19 3.5h59v-80q0 -15 -3.5 -18.5t-18.5 -3.5h-60z" />
<glyph unicode="k" horiz-adv-x="686" d="M102 0v1106h82v-1106h-82zM223 358l296 338h102l-308 -337l342 -359h-125z" />
<glyph unicode="l" horiz-adv-x="286" d="M102 184v922h82v-918l6 -192l-77 8z" />
<glyph unicode="m" horiz-adv-x="1198" d="M102 0v696h64l17 -156q38 76 104 121.5t143 45.5q91 0 149 -45.5t65 -120.5q38 76 104 121t143 45q97 0 156 -51t59 -134v-522h-82v512q0 60 -39 96.5t-104 36.5q-98 0 -167 -80.5t-69 -195.5v-369h-82v512q0 60 -39 96.5t-104 36.5q-98 0 -167 -80.5t-69 -195.5v-369 h-82z" />
<glyph unicode="n" d="M102 0v696h72l9 -161q40 79 111.5 125.5t156.5 46.5q94 0 164.5 -55t70.5 -140v-512h-82v502q0 64 -45 103.5t-119 39.5q-106 0 -181 -80.5t-75 -195.5v-369h-82z" />
<glyph unicode="o" horiz-adv-x="737" d="M51 348q0 161 87.5 260t230.5 99q142 0 229.5 -99t87.5 -260t-87 -259.5t-230 -98.5t-230.5 98.5t-87.5 259.5zM137 348q0 -133 64 -215t168 -82t167.5 82t63.5 215t-63.5 215t-167.5 82t-168 -82t-64 -215z" />
<glyph unicode="p" d="M102 -410v1106h72l10 -54l62 54h188q132 0 212.5 -95.5t80.5 -252.5q0 -161 -75 -259.5t-197 -98.5q-86 0 -158 49t-113 131v-580h-82zM184 348q0 -123 75 -210t181 -87q89 0 144 82t55 215q0 129 -55 208t-144 79h-256v-287z" />
<glyph unicode="q" d="M51 348q0 157 80.5 252.5t212.5 95.5h188l62 -54l10 54h72v-1106h-82v580q-41 -82 -112.5 -131t-157.5 -49q-122 0 -197.5 98.5t-75.5 259.5zM139 348q0 -133 55 -215t144 -82q106 0 181 87t75 210v287h-256q-89 0 -144 -79t-55 -208z" />
<glyph unicode="r" horiz-adv-x="532" d="M102 0v696h72l9 -165q43 81 112 128.5t149 47.5h48v-93h-93q-97 0 -156 -70.5t-59 -185.5v-358h-82z" />
<glyph unicode="s" horiz-adv-x="655" d="M82 41v92q113 -72 225 -72q92 0 143.5 33t51.5 94q0 23 -12.5 43t-29 32.5t-45.5 25t-50 19t-55 15.5q-98 26 -163 75t-65 124q0 80 74.5 132.5t197.5 52.5q79 0 189 -31v-92q-83 51 -205 51q-76 0 -125 -31t-49 -82q0 -23 12.5 -42.5t28 -31t46.5 -24t49 -18t55 -15.5 q50 -13 85 -27t71 -36.5t54.5 -56t18.5 -76.5q0 -92 -72.5 -148.5t-194.5 -56.5q-103 0 -235 51z" />
<glyph unicode="t" horiz-adv-x="546" d="M96 246v663l82 33v-246h287v-71h-287v-379q0 -191 150 -191q85 0 157 51v-86q-90 -30 -157 -30q-113 0 -172.5 66t-59.5 190z" />
<glyph unicode="u" d="M92 180v516h82v-499q0 -65 45.5 -105.5t120.5 -40.5q105 0 179.5 81t74.5 196v368h82v-508l6 -192l-68 4l-9 171q-40 -82 -118.5 -131.5t-173.5 -49.5q-100 0 -160.5 52t-60.5 138z" />
<glyph unicode="v" horiz-adv-x="737" d="M31 696h98l240 -630l239 630h99l-301 -696h-74z" />
<glyph unicode="w" horiz-adv-x="1126" d="M31 696h94l192 -630l199 630h94l199 -630l192 630h95l-250 -696h-74l-209 607l-209 -607h-73z" />
<glyph unicode="x" horiz-adv-x="737" d="M31 0l300 369l-265 327h98l205 -279l204 279h99l-266 -327l301 -369h-103l-235 320l-236 -320h-102z" />
<glyph unicode="y" horiz-adv-x="737" d="M0 -328q60 0 109 18t83.5 45t66.5 74t52.5 90t47.5 109l-328 688h98l260 -610l219 610h99l-297 -714q-39 -92 -75 -156t-85 -121.5t-111.5 -86t-138.5 -28.5v82z" />
<glyph unicode="z" horiz-adv-x="624" d="M31 0l409 625h-379v71h523l-410 -624h389v-72h-532z" />
<glyph unicode="{" horiz-adv-x="481" d="M31 455v73q48 0 76.5 6t54 25t37.5 58.5t19 102.5t7 161q0 250 60.5 381t175.5 131v-62q-35 0 -56 -4.5t-38.5 -22.5t-26 -43.5t-14.5 -78.5t-7.5 -115.5t-1.5 -165.5q0 -177 -51.5 -279t-161.5 -130q110 -28 161.5 -130.5t51.5 -279.5q0 -103 1.5 -165.5t7.5 -115.5 t14.5 -78.5t26 -43.5t38.5 -22.5t56 -4.5v-62q-115 0 -175.5 131t-60.5 381q0 98 -7 161t-19 102.5t-37.5 58.5t-54 25t-76.5 6z" />
<glyph unicode="|" horiz-adv-x="409" d="M164 -614v2048h82v-2048h-82z" />
<glyph unicode="}" horiz-adv-x="481" d="M20 -348q35 0 56 4.5t38.5 22.5t26 43.5t14.5 78.5t7.5 115.5t1.5 165.5q0 177 51.5 279.5t161.5 130.5q-110 28 -161.5 130t-51.5 279q0 103 -1.5 165.5t-7.5 115.5t-14.5 78.5t-26 43.5t-38.5 22.5t-56 4.5v62q115 0 175.5 -131t60.5 -381q0 -70 3.5 -121.5t9.5 -89.5 t18.5 -63.5t26 -41.5t36 -24t45 -10.5t56.5 -2.5v-73q-34 0 -56.5 -2.5t-45 -10.5t-36 -24t-26 -41.5t-18.5 -63.5t-9.5 -89.5t-3.5 -121.5q0 -250 -60.5 -381t-175.5 -131v62z" />
<glyph unicode="~" horiz-adv-x="624" d="M82 379v143q22 38 52.5 59t62.5 21q38 0 120 -38t121 -38q68 0 115 82v-143q-22 -38 -52.5 -59t-62.5 -21q-39 0 -121 38t-120 38q-68 0 -115 -82z" />
<glyph unicode="&#xa2;" horiz-adv-x="614" d="M51 492q0 143 72 238t194 115v179h82v-174q81 -3 154 -27v-90q-77 51 -174 51q-109 0 -175.5 -80t-66.5 -212t66.5 -212.5t175.5 -80.5q97 0 174 51v-90q-73 -24 -154 -27v-174h-82v179q-122 20 -194 115.5t-72 238.5z" />
<glyph unicode="&#xa3;" horiz-adv-x="716" d="M31 0v55q57 0 105 59.5t48 125.5v221h-123v61h123v215q0 117 70.5 186.5t198.5 69.5q95 0 172 -26v-94q-34 24 -81 39.5t-89 15.5q-92 0 -140.5 -48.5t-48.5 -131.5v-226h246v-61h-246v-221q0 -96 -83 -174h472v-66h-622h-2z" />
<glyph unicode="&#xa5;" horiz-adv-x="839" d="M31 983h108l281 -543l280 543h109l-331 -563h188v-72h-201v-348h-90v348h-201v72h187z" />
<glyph unicode="&#xa8;" horiz-adv-x="491" d="M72 881v80q0 15 3.5 18.5t18.5 3.5h60v-80q0 -15 -4 -18.5t-19 -3.5h-59zM338 881v80q0 15 3.5 18.5t18.5 3.5h60v-80q0 -15 -4 -18.5t-19 -3.5h-59z" />
<glyph unicode="&#xa9;" horiz-adv-x="1290" d="M61 492q0 264 160.5 424.5t423.5 160.5t423.5 -160.5t160.5 -424.5t-160.5 -425t-423.5 -161t-423.5 161t-160.5 425zM143 492q0 -236 138 -380.5t364 -144.5t364 144.5t138 380.5t-138 380t-364 144t-364 -144t-138 -380zM358 492q0 143 93 230t245 87q94 0 174 -27v-90 q-76 51 -174 51q-113 0 -182.5 -69t-69.5 -182t69.5 -182.5t182.5 -69.5q98 0 174 51v-90q-80 -27 -174 -27q-152 0 -245 87.5t-93 230.5z" />
<glyph unicode="&#xab;" horiz-adv-x="624" d="M41 369l225 270l19 -92l-154 -178l154 -179l-19 -92zM289 369l225 270l18 -92l-153 -178l153 -179l-18 -92z" />
<glyph unicode="&#xad;" horiz-adv-x="491" d="M41 410v71h410v-71h-410z" />
<glyph unicode="&#xae;" horiz-adv-x="1290" d="M61 492q0 264 160.5 424.5t423.5 160.5t423.5 -160.5t160.5 -424.5t-160.5 -425t-423.5 -161t-423.5 161t-160.5 425zM143 492q0 -236 138 -380.5t364 -144.5t364 144.5t138 380.5t-138 380t-364 144t-364 -144t-138 -380zM459 178v633h180q98 0 158.5 -45.5t60.5 -120.5 q0 -52 -38.5 -94t-100.5 -60q55 -18 87 -56.5t38 -90.5l20 -166h-78l-20 166q-6 60 -48.5 90.5t-111.5 30.5h-65v-287h-82zM541 526h94q59 0 100 35t41 84q0 47 -39 76t-102 29h-94v-224z" />
<glyph unicode="&#xb4;" horiz-adv-x="368" d="M70 889l157 201h64v-74l-207 -144z" />
<glyph unicode="&#xb8;" horiz-adv-x="395" d="M51 -332q48 -33 99 -33q53 0 85.5 27.5t32.5 71.5q0 45 -32 72.5t-84 27.5h-91l23 182h53l-16 -131h33q83 0 133.5 -41.5t50.5 -109.5q0 -69 -51.5 -111.5t-136.5 -42.5q-47 0 -99 14v74z" />
<glyph unicode="&#xbb;" horiz-adv-x="624" d="M92 190l154 179l-154 178l19 92l225 -270l-225 -271zM340 190l154 179l-154 178l18 92l226 -270l-226 -271z" />
<glyph unicode="&#x2c6;" horiz-adv-x="512" d="M51 860v84l197 146h16l197 -146v-84h-17l-188 178l-188 -178h-17z" />
<glyph unicode="&#x2da;" horiz-adv-x="409" d="M47 973q0 74 43.5 119t114.5 45t114 -45t43 -119t-43 -119t-114 -45t-114.5 45t-43.5 119zM98 973q0 -50 29.5 -81.5t77.5 -31.5t77 31.5t29 81.5t-29 81t-77 31t-77.5 -31t-29.5 -81z" />
<glyph unicode="&#x2dc;" horiz-adv-x="532" d="M43 887v90q45 80 107 80q34 0 116 -38t117 -38q61 0 106 80v-90q-45 -80 -106 -80q-35 0 -117 38t-116 38q-62 0 -107 -80z" />
<glyph unicode="&#x400;" horiz-adv-x="686" d="M113 0v983h522v-65h-434v-373h352v-66h-352v-413h434v-66h-522zM225 1251v74h64l157 -201l-14 -16z" />
<glyph unicode="&#x401;" horiz-adv-x="686" d="M113 0v983h522v-65h-434v-373h352v-66h-352v-413h434v-66h-522zM199 1178v79q0 15 3.5 19t18.5 4h60v-80q0 -15 -4 -18.5t-19 -3.5h-59zM465 1178v79q0 15 3.5 19t18.5 4h60v-80q0 -15 -4 -18.5t-19 -3.5h-59z" />
<glyph unicode="&#x402;" horiz-adv-x="1001" d="M41 918v65h645v-65h-278v-463q41 77 111.5 123.5t154.5 46.5q94 0 164.5 -55t70.5 -140v-614q0 -106 -53 -171t-141 -65q-77 0 -156 27v86q76 -47 156 -47q51 0 81.5 40.5t30.5 108.5v625q0 64 -44.5 103.5t-118.5 39.5q-106 0 -181 -80.5t-75 -195.5v-287h-89v918h-278z " />
<glyph unicode="&#x403;" horiz-adv-x="686" d="M113 0v983h532v-65h-444v-918h-88zM281 1124l157 201h64v-74l-207 -143z" />
<glyph unicode="&#x404;" horiz-adv-x="757" d="M61 492q0 226 118.5 363.5t312.5 137.5q102 0 194 -30v-94q-36 24 -92.5 39.5t-101.5 15.5q-145 0 -237.5 -109.5t-100.5 -290.5h389v-65h-389q8 -181 100.5 -290.5t237.5 -109.5q45 0 101.5 15.5t92.5 39.5v-94q-92 -30 -194 -30q-194 0 -312.5 138t-118.5 364z" />
<glyph unicode="&#x405;" horiz-adv-x="757" d="M82 63v101q84 -55 148.5 -80t127.5 -25q112 0 181 51.5t69 135.5q0 68 -56 121.5t-180 99.5q-162 59 -226 127t-64 147q0 123 84 187.5t244 64.5q109 0 225 -59v-92q-115 82 -225 82q-117 0 -178.5 -47t-61.5 -136q0 -56 54.5 -100t168.5 -86q174 -63 238.5 -132.5 t64.5 -176.5q0 -115 -93 -185.5t-245 -70.5q-135 0 -276 73z" />
<glyph unicode="&#x406;" horiz-adv-x="313" d="M113 0v983h88v-983h-88z" />
<glyph unicode="&#x407;" horiz-adv-x="313" d="M-16 1178v79q0 15 3.5 19t18.5 4h60v-80q0 -15 -4 -18.5t-19 -3.5h-59zM113 0v983h88v-983h-88zM250 1178v79q0 15 3.5 19t18.5 4h60v-80q0 -15 -4 -18.5t-19 -3.5h-59z" />
<glyph unicode="&#x408;" horiz-adv-x="583" d="M61 14v90q67 -49 142 -49q90 0 145 60.5t55 160.5v642h-331v65h420v-696q0 -133 -79 -215t-208 -82q-61 0 -144 24z" />
<glyph unicode="&#x409;" horiz-adv-x="1294" d="M41 -10v88q80 0 129 68.5t49 181.5v655h529v-430h147q157 0 252.5 -76t95.5 -201q0 -124 -95.5 -200t-252.5 -76h-236v918h-352v-590q0 -152 -73 -245t-193 -93zM748 66h157q111 0 178.5 57.5t67.5 152.5t-68 153t-178 58h-157v-421z" />
<glyph unicode="&#x40a;" horiz-adv-x="1294" d="M113 0v983h88v-430h458v430h89v-430h147q157 0 252.5 -76t95.5 -201q0 -124 -95.5 -200t-252.5 -76h-236v487h-458v-487h-88zM748 66h157q111 0 178.5 57.5t67.5 152.5t-68 153t-178 58h-157v-421z" />
<glyph unicode="&#x40b;" horiz-adv-x="1001" d="M41 918v65h645v-65h-278v-463q41 77 111.5 123.5t154.5 46.5q94 0 164.5 -55t70.5 -140v-430h-82v420q0 64 -44.5 103.5t-118.5 39.5q-106 0 -181 -80.5t-75 -195.5v-287h-89v918h-278z" />
<glyph unicode="&#x40c;" horiz-adv-x="757" d="M113 0v983h88v-983h-88zM229 512l357 471h102l-381 -471l420 -512h-113zM319 1124l158 201h64v-74l-207 -143z" />
<glyph unicode="&#x40d;" horiz-adv-x="870" d="M113 0v983h77v-847l496 847h72v-983h-78v846l-496 -846h-71zM293 1251v74h63l158 -201l-14 -16z" />
<glyph unicode="&#x40e;" d="M31 983h110l273 -604l223 604h111l-302 -715q-64 -150 -158.5 -214t-246.5 -64v92q148 0 218.5 43t121.5 169zM199 1311h67q0 -74 35 -119t92 -45t92 45t35 119h68q0 -92 -53.5 -148.5t-141.5 -56.5t-141 56.5t-53 148.5z" />
<glyph unicode="&#x40f;" horiz-adv-x="880" d="M113 0v983h88v-917h479v917h88v-983h-282l6 -217h-62l6 217h-323z" />
<glyph unicode="&#x410;" horiz-adv-x="860" d="M31 0l356 983h86l356 -983h-98l-74 225h-454l-74 -225h-98zM225 291h410l-205 620z" />
<glyph unicode="&#x411;" horiz-adv-x="788" d="M113 0v983h538v-65h-450v-365h192q155 0 249.5 -76.5t94.5 -200.5t-94.5 -200t-249.5 -76h-280zM201 66h188q116 0 186 57.5t70 152.5t-70 153t-186 58h-188v-421z" />
<glyph unicode="&#x412;" horiz-adv-x="788" d="M113 0v983h235q148 0 238 -68t90 -178q0 -75 -58 -135.5t-151 -85.5q117 -20 193.5 -89.5t76.5 -160.5q0 -120 -95.5 -193t-252.5 -73h-276zM201 66h188q115 0 185.5 55t70.5 145q0 84 -81.5 148.5t-184.5 64.5h-178v-413zM201 545h147q101 0 172.5 56t71.5 136 q0 81 -67.5 131t-176.5 50h-147v-373z" />
<glyph unicode="&#x413;" horiz-adv-x="686" d="M113 0v983h532v-65h-444v-918h-88z" />
<glyph unicode="&#x414;" horiz-adv-x="921" d="M41 82h78q71 8 114 75t43 171v655h488v-901h117v-299h-82v217h-676v-217h-82v299zM266 82h410v836h-311v-590q0 -160 -99 -246z" />
<glyph unicode="&#x415;" horiz-adv-x="686" d="M113 0v983h522v-65h-434v-373h352v-66h-352v-413h434v-66h-522z" />
<glyph unicode="&#x416;" horiz-adv-x="1169" d="M31 0l415 512l-376 471h101l351 -471l-378 -512h-113zM541 0v983h88v-983h-88zM647 512l351 471h102l-377 -471l416 -512h-114z" />
<glyph unicode="&#x417;" horiz-adv-x="686" d="M61 16v96q41 -26 101.5 -41.5t113.5 -15.5q120 0 193.5 58t73.5 153q0 112 -65 180t-171 68h-102v68h51q110 0 178 54t68 142q0 67 -62.5 108.5t-163.5 41.5q-117 0 -194 -55v94q89 26 194 26q138 0 223 -59t85 -156q0 -76 -57.5 -137t-148.5 -87q111 -20 184 -101 t73 -187q0 -124 -99 -200t-260 -76q-123 0 -215 26z" />
<glyph unicode="&#x418;" horiz-adv-x="870" d="M113 0v983h77v-847l496 847h72v-983h-78v846l-496 -846h-71z" />
<glyph unicode="&#x419;" horiz-adv-x="870" d="M113 0v983h77v-847l496 847h72v-983h-78v846l-496 -846h-71zM236 1311h67q0 -74 35 -119t92 -45t92 45t35 119h68q0 -92 -53.5 -148.5t-141.5 -56.5t-141 56.5t-53 148.5z" />
<glyph unicode="&#x41a;" horiz-adv-x="757" d="M113 0v983h88v-983h-88zM229 512l357 471h102l-381 -471l420 -512h-113z" />
<glyph unicode="&#x41b;" horiz-adv-x="880" d="M41 -10v88q80 0 129 68.5t49 181.5v655h549v-983h-88v918h-373v-590q0 -152 -73 -245t-193 -93z" />
<glyph unicode="&#x41c;" horiz-adv-x="1228" d="M113 0v983h80l421 -805l422 805h80v-983h-84v807l-416 -793h-4l-415 793v-807h-84z" />
<glyph unicode="&#x41d;" horiz-adv-x="880" d="M113 0v983h88v-438h479v438h88v-983h-88v479h-479v-479h-88z" />
<glyph unicode="&#x41e;" horiz-adv-x="917" d="M61 492q0 225 109.5 363t288.5 138t288 -137.5t109 -363.5t-109 -364t-288 -138t-288.5 138t-109.5 364zM154 492q0 -196 84 -315.5t221 -119.5t221 119.5t84 315.5t-84 315t-221 119t-221 -119t-84 -315z" />
<glyph unicode="&#x41f;" horiz-adv-x="880" d="M113 0v983h655v-983h-88v918h-479v-918h-88z" />
<glyph unicode="&#x420;" horiz-adv-x="788" d="M113 0v983h266q161 0 259.5 -84.5t98.5 -222.5q0 -148 -98.5 -238t-259.5 -90h-180v-348h-86zM199 414h190q115 0 185.5 72t70.5 190q0 109 -70.5 175.5t-185.5 66.5h-190v-504z" />
<glyph unicode="&#x421;" horiz-adv-x="757" d="M61 492q0 226 118.5 363.5t312.5 137.5q102 0 194 -30v-94q-36 24 -92.5 39.5t-101.5 15.5q-152 0 -245 -119t-93 -313t93 -313.5t245 -119.5q45 0 101.5 15.5t92.5 39.5v-94q-92 -30 -194 -30q-194 0 -312.5 138t-118.5 364z" />
<glyph unicode="&#x422;" horiz-adv-x="727" d="M41 918v65h645v-65h-278v-918h-89v918h-278z" />
<glyph unicode="&#x423;" d="M31 983h110l273 -604l223 604h111l-302 -715q-64 -150 -158.5 -214t-246.5 -64v92q148 0 218.5 43t121.5 169z" />
<glyph unicode="&#x424;" horiz-adv-x="962" d="M41 492q0 153 109 249.5t290 107.5v134h82v-134q181 -11 290.5 -108t109.5 -249q0 -153 -109.5 -250t-290.5 -108v-134h-82v134q-181 11 -290 108t-109 250zM129 492q0 -124 85 -204.5t226 -91.5v591q-141 -11 -226 -91t-85 -204zM522 196q141 11 226.5 91.5t85.5 204.5 t-85.5 204t-226.5 91v-591z" />
<glyph unicode="&#x425;" horiz-adv-x="819" d="M31 0l338 514l-303 469h102l242 -403l241 403h103l-304 -469l338 -514h-108l-270 449l-271 -449h-108z" />
<glyph unicode="&#x426;" horiz-adv-x="942" d="M113 0v983h88v-917h448v917h88v-917h164v-283h-65v217h-723z" />
<glyph unicode="&#x427;" horiz-adv-x="819" d="M92 614v369h88v-369q0 -60 41 -96.5t107 -36.5h290v502h89v-983h-89v418h-290q-106 0 -171 54t-65 142z" />
<glyph unicode="&#x428;" horiz-adv-x="1239" d="M113 0v983h88v-917h374v917h89v-917h374v917h88v-983h-1013z" />
<glyph unicode="&#x429;" horiz-adv-x="1310" d="M113 0v983h88v-917h364v917h88v-917h365v917h88v-917h164v-283h-66v217h-1091z" />
<glyph unicode="&#x42a;" horiz-adv-x="890" d="M41 918v65h283v-430h168q157 0 252.5 -76t95.5 -201q0 -124 -95.5 -200t-252.5 -76h-256v918h-195zM324 66h178q111 0 178.5 57.5t67.5 152.5t-68 153t-178 58h-178v-421z" />
<glyph unicode="&#x42b;" horiz-adv-x="1034" d="M113 0v983h88v-430h168q157 0 252.5 -76t95.5 -201q0 -124 -95.5 -200t-252.5 -76h-256zM201 66h178q111 0 178.5 57.5t67.5 152.5t-68 153t-178 58h-178v-421zM834 0v983h88v-983h-88z" />
<glyph unicode="&#x42c;" horiz-adv-x="768" d="M113 0v983h88v-430h172q155 0 249.5 -76.5t94.5 -200.5t-94.5 -200t-249.5 -76h-260zM201 66h178q111 0 178.5 57.5t67.5 152.5t-68 153t-178 58h-178v-421z" />
<glyph unicode="&#x42d;" horiz-adv-x="757" d="M72 20v94q36 -24 92.5 -39.5t101.5 -15.5q145 0 237 109.5t100 290.5h-388v65h388q-8 181 -100 290.5t-237 109.5q-45 0 -101.5 -15.5t-92.5 -39.5v94q91 30 194 30q194 0 312 -137.5t118 -363.5t-118.5 -364t-311.5 -138q-102 0 -194 30z" />
<glyph unicode="&#x42e;" horiz-adv-x="1208" d="M113 0v983h88v-459h152q8 213 116.5 341t280.5 128q179 0 288 -137.5t109 -363.5t-109 -364t-288 -138q-172 0 -280.5 128t-116.5 341h-152v-459h-88zM444 492q0 -196 84.5 -315.5t221.5 -119.5t221 119.5t84 315.5t-84 315t-221 119t-221.5 -119.5t-84.5 -314.5z" />
<glyph unicode="&#x42f;" horiz-adv-x="798" d="M61 -10v88q144 0 232 88t88 233v42q-135 8 -216 83t-81 193q0 120 90 193t236 73h188h88v-983h-88v440h-152v-51q0 -180 -106 -289.5t-279 -109.5zM172 717q0 -95 62.5 -153t164.5 -58h199v412h-199q-102 0 -164.5 -55.5t-62.5 -145.5z" />
<glyph unicode="&#x430;" d="M51 348q0 157 80.5 252.5t212.5 95.5h188l62 -54l10 54h72v-508l6 -192l-68 4l-10 188q-38 -89 -113.5 -143.5t-166.5 -54.5q-122 0 -197.5 98.5t-75.5 259.5zM137 348q0 -133 55.5 -215t145.5 -82q106 0 181 84t75 203v297h-256q-90 0 -145.5 -79t-55.5 -208z" />
<glyph unicode="&#x431;" d="M61 492q0 226 112.5 363.5t297.5 137.5h154v-20q0 -26 -39 -35.5t-115 -9.5q-141 0 -230 -107t-100 -285q44 78 121 124.5t168 46.5q133 0 215 -99t82 -260t-90 -259.5t-238 -98.5q-152 0 -245 138t-93 364zM147 373q20 -146 88 -232t164 -86q110 0 178 80.5t68 212.5 t-64.5 212.5t-170.5 80.5q-109 0 -186 -78.5t-77 -189.5z" />
<glyph unicode="&#x432;" horiz-adv-x="706" d="M102 0v696h226q120 0 193 -46t73 -122q0 -53 -48 -95.5t-124 -60.5q101 -12 167 -62t66 -115q0 -88 -81.5 -141.5t-215.5 -53.5h-256zM184 66h174q92 0 148.5 35.5t56.5 93.5q0 64 -56.5 102.5t-148.5 38.5h-174v-270zM184 401h144q88 0 141 35t53 92q0 46 -53.5 74.5 t-140.5 28.5h-144v-230z" />
<glyph unicode="&#x433;" horiz-adv-x="563" d="M113 0v696h419v-61h-337v-635h-82z" />
<glyph unicode="&#x434;" horiz-adv-x="829" d="M31 72h41q83 0 133.5 62t50.5 163v399h420v-624h112v-289h-71v217h-615v-217h-71v289zM224 72h370v563h-256v-338q0 -75 -30 -133t-84 -92z" />
<glyph unicode="&#x435;" horiz-adv-x="706" d="M51 348q2 162 85.5 260.5t221.5 98.5q145 0 221 -87t76 -253v-9q0 -28 -18 -44.5t-47 -16.5h-454q14 -111 82 -176.5t171 -65.5q97 0 174 51v-90q-77 -26 -174 -26q-149 0 -243.5 99t-94.5 259zM133 315l53 52h387q0 136 -55 207t-160 71q-101 0 -163 -81.5t-62 -215.5 v-33z" />
<glyph unicode="&#x436;" horiz-adv-x="1034" d="M31 0l336 359l-302 337h102l286 -338l-297 -358h-125zM471 0v696h82v-696h-82zM582 358l285 338h102l-301 -337l336 -359h-126z" />
<glyph unicode="&#x437;" horiz-adv-x="614" d="M61 16v90q77 -51 195 -51q97 0 156 38.5t59 101.5q0 64 -56.5 102.5t-148.5 38.5h-94v65h64q88 0 141 35t53 92q0 51 -53 82t-141 31q-51 0 -86 -11t-78 -40v90q80 27 164 27q120 0 193 -49.5t73 -129.5q0 -53 -48 -95.5t-124 -60.5q100 -12 166.5 -62t66.5 -115 q0 -92 -84.5 -148.5t-222.5 -56.5q-118 0 -195 26z" />
<glyph unicode="&#x438;" d="M102 0v696h82v-579l414 579h78v-696h-82v569l-414 -569h-78z" />
<glyph unicode="&#x439;" d="M102 0v696h82v-579l414 579h78v-696h-82v569l-414 -569h-78zM195 1065h67q0 -74 35 -119t92 -45t92 45t35 119h68q0 -92 -53.5 -148.5t-141.5 -56.5t-141 56.5t-53 148.5z" />
<glyph unicode="&#x43a;" horiz-adv-x="686" d="M102 0v696h82v-696h-82zM223 358l296 338h102l-308 -337l342 -359h-125z" />
<glyph unicode="&#x43b;" d="M41 -10v82q78 0 126 64.5t48 170.5v389h461v-696h-82v635h-297v-328q0 -143 -70.5 -230t-185.5 -87z" />
<glyph unicode="&#x43c;" horiz-adv-x="1024" d="M102 0v696h72l338 -540l338 540h72v-696h-78v553l-330 -526h-4l-330 526v-553h-78z" />
<glyph unicode="&#x43d;" d="M102 0v696h82v-295h410v295h82v-696h-82v336h-410v-336h-82z" />
<glyph unicode="&#x43e;" horiz-adv-x="737" d="M51 348q0 161 87.5 260t230.5 99q142 0 229.5 -99t87.5 -260t-87 -259.5t-230 -98.5t-230.5 98.5t-87.5 259.5zM137 348q0 -133 64 -215t168 -82t167.5 82t63.5 215t-63.5 215t-167.5 82t-168 -82t-64 -215z" />
<glyph unicode="&#x43f;" d="M102 0v696h574v-696h-82v631h-410v-631h-82z" />
<glyph unicode="&#x440;" d="M102 -410v1106h72l10 -54l62 54h188q132 0 212.5 -95.5t80.5 -252.5q0 -161 -75 -259.5t-197 -98.5q-86 0 -158 49t-113 131v-580h-82zM184 348q0 -123 75 -210t181 -87q89 0 144 82t55 215q0 129 -55 208t-144 79h-256v-287z" />
<glyph unicode="&#x441;" horiz-adv-x="614" d="M51 348q0 161 90 260t238 99q94 0 174 -27v-90q-77 51 -174 51q-109 0 -175.5 -80.5t-66.5 -212.5t66.5 -212.5t175.5 -80.5q97 0 174 51v-90q-77 -26 -174 -26q-148 0 -238 98.5t-90 259.5z" />
<glyph unicode="&#x442;" horiz-adv-x="634" d="M41 631v65h553v-65h-236v-631h-82v631h-235z" />
<glyph unicode="&#x443;" horiz-adv-x="737" d="M0 -328q60 0 109 18t83.5 45t66.5 74t52.5 90t47.5 109l-328 688h98l260 -610l219 610h99l-297 -714q-39 -92 -75 -156t-85 -121.5t-111.5 -86t-138.5 -28.5v82z" />
<glyph unicode="&#x444;" horiz-adv-x="1208" d="M51 348q0 157 81.5 252.5t215.5 95.5h150l65 -55v465h82v-465l66 55h149q134 0 215.5 -95.5t81.5 -252.5q0 -161 -73 -259.5t-193 -98.5q-77 0 -142.5 49.5t-103.5 133.5v-583h-82v583q-38 -84 -103.5 -133.5t-142.5 -49.5q-120 0 -193 98.5t-73 259.5zM137 348 q0 -133 52.5 -215t138.5 -82q97 0 166 93.5t69 224.5v266h-225q-90 0 -145.5 -79t-55.5 -208zM645 369q0 -131 69.5 -224.5t166.5 -93.5q85 0 137.5 81.5t52.5 215.5q0 129 -55.5 208t-145.5 79h-225v-266z" />
<glyph unicode="&#x445;" horiz-adv-x="737" d="M31 0l300 369l-265 327h98l205 -279l204 279h99l-266 -327l301 -369h-103l-235 320l-236 -320h-102z" />
<glyph unicode="&#x446;" horiz-adv-x="839" d="M102 0v696h82v-635h369v635h82v-635h164v-278h-62v217h-635z" />
<glyph unicode="&#x447;" horiz-adv-x="737" d="M82 471v225h82v-225q0 -65 39 -104t104 -39h246v368h82v-696h-82v266h-246q-101 0 -163 56.5t-62 148.5z" />
<glyph unicode="&#x448;" horiz-adv-x="1146" d="M102 0v696h82v-635h348v635h82v-635h349v635h81v-696h-942z" />
<glyph unicode="&#x449;" horiz-adv-x="1228" d="M102 0v696h82v-635h338v635h82v-635h338v635h82v-635h164v-278h-62v217h-1024z" />
<glyph unicode="&#x44a;" d="M41 635v61h256v-245h143q129 0 208 -62.5t79 -163.5t-79 -163t-208 -62h-225v635h-174zM297 61h143q90 0 145.5 45.5t55.5 118.5t-55.5 118.5t-145.5 45.5h-143v-328z" />
<glyph unicode="&#x44b;" horiz-adv-x="911" d="M102 0v696h82v-245h144q129 0 207.5 -62.5t78.5 -163.5t-78.5 -163t-207.5 -62h-226zM184 61h144q90 0 145 45t55 119t-55 119t-145 45h-144v-328zM727 0v696h82v-696h-82z" />
<glyph unicode="&#x44c;" horiz-adv-x="665" d="M102 0v696h82v-245h144q129 0 207.5 -62.5t78.5 -163.5t-78.5 -163t-207.5 -62h-226zM184 61h148q88 0 142 45t54 119t-54 119t-142 45h-148v-328z" />
<glyph unicode="&#x44d;" horiz-adv-x="614" d="M61 16v90q77 -51 175 -51q102 0 167 71t73 189h-322v66h322q-8 118 -73 189t-167 71q-98 0 -175 -51v90q80 27 175 27q148 0 237.5 -99t89.5 -260t-89.5 -259.5t-237.5 -98.5q-98 0 -175 26z" />
<glyph unicode="&#x44e;" horiz-adv-x="1003" d="M102 0v696h82v-317h134q9 149 95.5 238.5t221.5 89.5q142 0 229.5 -99t87.5 -260t-87 -259.5t-230 -98.5q-136 0 -222 89t-95 238h-134v-317h-82zM403 348q0 -133 64 -215t168 -82t167.5 82t63.5 215t-63.5 215t-167.5 82t-168 -82t-64 -215z" />
<glyph unicode="&#x44f;" horiz-adv-x="727" d="M72 -10v86q125 0 182.5 41.5t65.5 140.5q-109 11 -173.5 68.5t-64.5 144.5q0 101 79 163t208 62h256v-696h-82v256h-162q-8 -130 -86.5 -198t-222.5 -68zM164 471q0 -74 53 -119t141 -45h185v328h-185q-88 0 -141 -45t-53 -119z" />
<glyph unicode="&#x450;" horiz-adv-x="706" d="M51 348q2 162 85.5 260.5t221.5 98.5q145 0 221 -87t76 -253v-9q0 -28 -18 -44.5t-47 -16.5h-454q14 -111 82 -176.5t171 -65.5q97 0 174 51v-90q-77 -26 -174 -26q-149 0 -243.5 99t-94.5 259zM133 315l53 52h387q0 136 -55 207t-160 71q-101 0 -163 -81.5t-62 -215.5 v-33zM231 1006v73h64l158 -200l-15 -17z" />
<glyph unicode="&#x451;" horiz-adv-x="706" d="M51 348q2 162 85.5 260.5t221.5 98.5q145 0 221 -87t76 -253v-9q0 -28 -18 -44.5t-47 -16.5h-454q14 -111 82 -176.5t171 -65.5q97 0 174 51v-90q-77 -26 -174 -26q-149 0 -243.5 99t-94.5 259zM133 315l53 52h387q0 136 -55 207t-160 71q-101 0 -163 -81.5t-62 -215.5 v-33zM205 932v80q0 15 3.5 18.5t18.5 3.5h60v-80q0 -15 -4 -18.5t-19 -3.5h-59zM471 932v80q0 15 4 18.5t19 3.5h59v-80q0 -15 -4 -18.5t-19 -3.5h-59z" />
<glyph unicode="&#x452;" d="M31 860v72h71v174h82v-174h246v-72h-246v-371q42 81 115.5 129t161.5 48q101 0 163 -51t62 -134v-665q0 -106 -53 -171t-141 -65q-77 0 -156 27v86q76 -47 156 -47q51 0 81.5 40.5t30.5 108.5v676q0 60 -42 96.5t-111 36.5q-110 0 -188.5 -84t-78.5 -203v-317h-82v860 h-71z" />
<glyph unicode="&#x453;" horiz-adv-x="563" d="M113 0v696h419v-61h-337v-635h-82zM260 838l158 200h63v-73l-207 -144z" />
<glyph unicode="&#x454;" horiz-adv-x="614" d="M51 348q0 161 90 260t238 99q94 0 174 -27v-90q-77 51 -174 51q-102 0 -167.5 -71.5t-73.5 -190.5h323v-62h-323q8 -119 73.5 -190.5t167.5 -71.5q97 0 174 51v-90q-77 -26 -174 -26q-148 0 -238 98.5t-90 259.5z" />
<glyph unicode="&#x455;" horiz-adv-x="655" d="M82 41v92q113 -72 225 -72q92 0 143.5 33t51.5 94q0 23 -12.5 43t-29 32.5t-45.5 25t-50 19t-55 15.5q-98 26 -163 75t-65 124q0 80 74.5 132.5t197.5 52.5q79 0 189 -31v-92q-83 51 -205 51q-76 0 -125 -31t-49 -82q0 -23 12.5 -42.5t28 -31t46.5 -24t49 -18t55 -15.5 q50 -13 85 -27t71 -36.5t54.5 -56t18.5 -76.5q0 -92 -72.5 -148.5t-194.5 -56.5q-103 0 -235 51z" />
<glyph unicode="&#x456;" horiz-adv-x="286" d="M102 184v512h82v-508l6 -192l-77 8zM102 932v80q0 15 4 18.5t19 3.5h59v-80q0 -15 -3.5 -18.5t-18.5 -3.5h-60z" />
<glyph unicode="&#x457;" horiz-adv-x="286" d="M-10 932v80q0 15 3.5 18.5t18.5 3.5h60v-80q0 -15 -4 -18.5t-19 -3.5h-59zM102 184v512h82v-508l6 -192l-77 8zM256 932v80q0 15 4 18.5t19 3.5h59v-80q0 -15 -4 -18.5t-19 -3.5h-59z" />
<glyph unicode="&#x458;" horiz-adv-x="327" d="M-125 -307q76 -47 156 -47q51 0 81.5 40.5t30.5 108.5v901h82v-880q0 -106 -53 -171t-141 -65q-77 0 -156 27v86zM143 932v80q0 15 4 18.5t19 3.5h59v-80q0 -15 -3.5 -18.5t-18.5 -3.5h-60z" />
<glyph unicode="&#x459;" horiz-adv-x="1116" d="M41 -10v82q78 0 126 64.5t48 170.5v389h440v-266h123q129 0 208 -59t79 -156t-79 -156t-208 -59h-205v635h-276v-328q0 -143 -70.5 -230t-185.5 -87zM655 61h123q90 0 145.5 42.5t55.5 111.5t-55.5 111.5t-145.5 42.5h-123v-308z" />
<glyph unicode="&#x45a;" horiz-adv-x="1116" d="M102 0v696h82v-266h389v266h82v-266h123q129 0 208 -59t79 -156t-79 -156t-208 -59h-205v365h-389v-365h-82zM655 61h123q90 0 145.5 42.5t55.5 111.5t-55.5 111.5t-145.5 42.5h-123v-308z" />
<glyph unicode="&#x45b;" d="M31 860v72h71v174h82v-174h246v-72h-246v-371q42 81 115.5 129t161.5 48q101 0 163 -51t62 -134v-481h-82v471q0 60 -42 96.5t-111 36.5q-110 0 -188.5 -84t-78.5 -203v-317h-82v860h-71z" />
<glyph unicode="&#x45c;" horiz-adv-x="686" d="M102 0v696h82v-696h-82zM223 358l296 338h102l-308 -337l342 -359h-125zM315 879l158 200h64v-73l-207 -144z" />
<glyph unicode="&#x45d;" d="M102 0v696h82v-579l414 579h78v-696h-82v569l-414 -569h-78zM242 1006v73h63l158 -200l-14 -17z" />
<glyph unicode="&#x45e;" horiz-adv-x="737" d="M0 -328q60 0 109 18t83.5 45t66.5 74t52.5 90t47.5 109l-328 688h98l260 -610l219 610h99l-297 -714q-39 -92 -75 -156t-85 -121.5t-111.5 -86t-138.5 -28.5v82zM184 1065h68q0 -74 35 -119t92 -45t92 45t35 119h67q0 -92 -53 -148.5t-141 -56.5t-141.5 56.5t-53.5 148.5 z" />
<glyph unicode="&#x45f;" d="M102 0v696h82v-635h410v635h82v-696h-265l9 -217h-62l9 217h-265z" />
<glyph unicode="&#x462;" horiz-adv-x="829" d="M31 748v71h143v164h88v-164h260v-71h-260v-195h168q157 0 252.5 -76t95.5 -201q0 -124 -95.5 -200t-252.5 -76h-256v748h-143zM262 66h178q111 0 178.5 57.5t67.5 152.5t-68 153t-178 58h-178v-421z" />
<glyph unicode="&#x463;" horiz-adv-x="727" d="M31 635v72h133v235h82v-235h246v-72h-246v-184h143q129 0 208 -62.5t79 -163.5t-79 -163t-208 -62h-225v635h-133zM246 61h143q90 0 145.5 45.5t55.5 118.5t-55.5 118.5t-145.5 45.5h-143v-328z" />
<glyph unicode="&#x464;" horiz-adv-x="1048" d="M113 0v983h88v-459h152q9 213 126 341t303 128q104 0 195 -30v-94q-36 23 -93 39t-102 16q-145 0 -237 -109.5t-100 -290.5h389v-65h-389q8 -181 100 -290.5t237 -109.5q45 0 102 16t93 39v-94q-91 -30 -195 -30q-186 0 -303 128t-126 341h-152v-459h-88z" />
<glyph unicode="&#x465;" horiz-adv-x="880" d="M102 0v696h82v-317h134q9 149 98 238.5t229 89.5q94 0 174 -27v-90q-77 51 -174 51q-102 0 -167.5 -71.5t-73.5 -190.5h323v-62h-323q8 -119 73.5 -190.5t167.5 -71.5q97 0 174 51v-90q-77 -26 -174 -26q-140 0 -229 89t-98 238h-134v-317h-82z" />
<glyph unicode="&#x472;" horiz-adv-x="917" d="M61 492q0 225 109.5 363t288.5 138t288 -137.5t109 -363.5t-109 -364t-288 -138t-288.5 138t-109.5 364zM154 463q29 41 67 74.5t62 33.5q70 0 178 -38q105 -37 176 -37q32 0 66 23.5t56 60.5q-19 159 -99.5 252.5t-200.5 93.5q-137 0 -221 -119.5t-84 -314.5v-29z M160 393q20 -155 100 -245.5t199 -90.5q137 0 221 120t84 315v16q-29 -41 -65.5 -73t-61.5 -32q-67 0 -175 38q-110 38 -179 38q-32 0 -66.5 -24t-56.5 -62z" />
<glyph unicode="&#x473;" horiz-adv-x="737" d="M51 348q0 161 87.5 260t230.5 99q142 0 229.5 -99t87.5 -260t-87 -259.5t-230 -98.5t-230.5 98.5t-87.5 259.5zM137 348q0 -4 0.5 -11t0.5 -10q23 35 51 63t46 28q51 0 134 -31t133 -31q24 0 50.5 17.5t42.5 46.5q-17 103 -77.5 164t-148.5 61q-104 0 -168 -82t-64 -215z M143 276q17 -103 77.5 -164t148.5 -61q104 0 167.5 82t63.5 215v21q-23 -34 -51.5 -62t-46.5 -28q-52 0 -133 30q-83 31 -134 31q-24 0 -50 -17.5t-42 -46.5z" />
<glyph unicode="&#x490;" horiz-adv-x="686" d="M113 0v983h467l10 195h55v-260h-444v-918h-88z" />
<glyph unicode="&#x491;" horiz-adv-x="573" d="M113 0v696h354l10 195h55v-256h-337v-635h-82z" />
<glyph unicode="&#x4c0;" horiz-adv-x="313" d="M113 0v983h88v-983h-88z" />
<glyph unicode="&#x4c1;" horiz-adv-x="1169" d="M31 0l415 512l-376 471h101l351 -471l-378 -512h-113zM389 1311h68q0 -74 35 -119t92 -45t92 45t35 119h67q0 -92 -53 -148.5t-141 -56.5t-141.5 56.5t-53.5 148.5zM541 0v983h88v-983h-88zM647 512l351 471h102l-377 -471l416 -512h-114z" />
<glyph unicode="&#x4c2;" horiz-adv-x="1034" d="M31 0l336 359l-302 337h102l286 -338l-297 -358h-125zM317 1065h68q0 -74 35 -119t92 -45t92 45t35 119h68q0 -92 -53.5 -148.5t-141.5 -56.5t-141.5 56.5t-53.5 148.5zM471 0v696h82v-696h-82zM582 358l285 338h102l-301 -337l336 -359h-126z" />
<glyph unicode="&#x4d0;" horiz-adv-x="860" d="M31 0l356 983h86l356 -983h-98l-74 225h-454l-74 -225h-98zM225 291h410l-205 620zM236 1311h67q0 -74 35 -119t92 -45t92 45t35 119h68q0 -92 -53.5 -148.5t-141.5 -56.5t-141 56.5t-53 148.5z" />
<glyph unicode="&#x4d1;" d="M51 348q0 157 80.5 252.5t212.5 95.5h188l62 -54l10 54h72v-508l6 -192l-68 4l-10 188q-38 -89 -113.5 -143.5t-166.5 -54.5q-122 0 -197.5 98.5t-75.5 259.5zM137 348q0 -133 55.5 -215t145.5 -82q106 0 181 84t75 203v297h-256q-90 0 -145.5 -79t-55.5 -208zM195 1065 h67q0 -74 35 -119t92 -45t92 45t35 119h68q0 -92 -53.5 -148.5t-141.5 -56.5t-141 56.5t-53 148.5z" />
<glyph unicode="&#x4d2;" horiz-adv-x="860" d="M31 0l356 983h86l356 -983h-98l-74 225h-454l-74 -225h-98zM225 291h410l-205 620zM276 1178v79q0 15 4 19t19 4h59v-80q0 -15 -3.5 -18.5t-18.5 -3.5h-60zM543 1178v79q0 15 3.5 19t18.5 4h60v-80q0 -15 -4 -18.5t-19 -3.5h-59z" />
<glyph unicode="&#x4d3;" d="M51 348q0 157 80.5 252.5t212.5 95.5h188l62 -54l10 54h72v-508l6 -192l-68 4l-10 188q-38 -89 -113.5 -143.5t-166.5 -54.5q-122 0 -197.5 98.5t-75.5 259.5zM137 348q0 -133 55.5 -215t145.5 -82q106 0 181 84t75 203v297h-256q-90 0 -145.5 -79t-55.5 -208zM236 932 v80q0 15 3.5 18.5t18.5 3.5h59v-80q0 -15 -3.5 -18.5t-18.5 -3.5h-59zM502 932v80q0 15 3.5 18.5t18.5 3.5h60v-80q0 -15 -4 -18.5t-19 -3.5h-59z" />
<glyph unicode="&#x4d4;" horiz-adv-x="1126" d="M31 0l356 983h688v-65h-413v-373h331v-66h-331v-413h413v-66h-502v225h-370l-74 -225h-98zM225 291h348v627h-141z" />
<glyph unicode="&#x4d5;" horiz-adv-x="1187" d="M51 184q0 85 65 137t171 52h245v119q0 69 -53 109t-141 40q-58 0 -114 -15t-91 -40v93q117 28 209 28q95 0 161.5 -39t89.5 -106q39 69 102.5 107t144.5 38q146 0 221.5 -82.5t75.5 -247.5v-8q0 -27 -18 -42.5t-48 -15.5h-455q10 -117 78.5 -186.5t175.5 -69.5 q98 0 174 51v-90q-77 -26 -174 -26q-106 0 -184 52.5t-115 145.5q-41 -89 -123.5 -143.5t-181.5 -54.5q-97 0 -156 53t-59 141zM137 184q0 -60 38 -96.5t101 -36.5q106 0 181 84t75 203v22l-38 -49h-218q-63 0 -101 -35t-38 -92zM614 326l54 47h387q0 135 -54.5 203.5 t-160.5 68.5q-101 0 -163.5 -82t-62.5 -215v-22z" />
<glyph unicode="&#x4d6;" horiz-adv-x="686" d="M113 0v983h522v-65h-434v-373h352v-66h-352v-413h434v-66h-522zM178 1311h68q0 -74 35 -119t92 -45t92 45t35 119h67q0 -92 -53 -148.5t-141 -56.5t-141.5 56.5t-53.5 148.5z" />
<glyph unicode="&#x4d7;" horiz-adv-x="706" d="M51 348q2 162 85.5 260.5t221.5 98.5q145 0 221 -87t76 -253v-9q0 -28 -18 -44.5t-47 -16.5h-454q14 -111 82 -176.5t171 -65.5q97 0 174 51v-90q-77 -26 -174 -26q-149 0 -243.5 99t-94.5 259zM133 315l53 52h387q0 136 -55 207t-160 71q-101 0 -163 -81.5t-62 -215.5 v-33zM154 1085h41q0 -73 44.5 -118t118.5 -45t119 45t45 118h41q0 -101 -56.5 -163t-148.5 -62t-148 62t-56 163z" />
<glyph unicode="&#x4d8;" horiz-adv-x="921" d="M61 434v37q0 27 17 43t45 16h648q-10 181 -105.5 289.5t-245.5 108.5q-156 0 -236 -57v86q101 36 236 36q198 0 319 -137.5t121 -363.5t-118.5 -364t-311.5 -138q-166 0 -267.5 122t-101.5 322zM150 465q0 -200 72 -305t208 -105q154 0 248 120.5t94 316.5v24l-51 -51 h-571z" />
<glyph unicode="&#x4d9;" horiz-adv-x="706" d="M51 330v8q0 28 18.5 44.5t47.5 16.5h453q-14 111 -82 176.5t-171 65.5q-98 0 -174 -51v90q80 27 174 27q149 0 243.5 -99.5t94.5 -259.5q-2 -162 -85.5 -260t-221.5 -98q-145 0 -221 87t-76 253zM133 330q0 -136 55 -207.5t160 -71.5q101 0 163 81.5t62 215.5v33l-53 -51 h-387z" />
<glyph unicode="&#x4da;" horiz-adv-x="921" d="M61 434v37q0 27 17 43t45 16h648q-10 181 -105.5 289.5t-245.5 108.5q-156 0 -236 -57v86q101 36 236 36q198 0 319 -137.5t121 -363.5t-118.5 -364t-311.5 -138q-166 0 -267.5 122t-101.5 322zM150 465q0 -200 72 -305t208 -105q154 0 248 120.5t94 316.5v24l-51 -51 h-571zM262 1180v80q0 15 4 18.5t19 3.5h59v-80q0 -15 -3.5 -18.5t-18.5 -3.5h-60zM528 1180v80q0 15 4 18.5t19 3.5h59v-80q0 -15 -3.5 -18.5t-18.5 -3.5h-60z" />
<glyph unicode="&#x4db;" horiz-adv-x="706" d="M51 330v8q0 28 18.5 44.5t47.5 16.5h453q-14 111 -82 176.5t-171 65.5q-98 0 -174 -51v90q80 27 174 27q149 0 243.5 -99.5t94.5 -259.5q-2 -162 -85.5 -260t-221.5 -98q-145 0 -221 87t-76 253zM133 330q0 -136 55 -207.5t160 -71.5q101 0 163 81.5t62 215.5v33l-53 -51 h-387zM174 932v80q0 15 4 18.5t19 3.5h59v-80q0 -15 -4 -18.5t-19 -3.5h-59zM440 932v80q0 15 4 18.5t19 3.5h59v-80q0 -15 -3.5 -18.5t-18.5 -3.5h-60z" />
<glyph unicode="&#x4dc;" horiz-adv-x="1169" d="M31 0l415 512l-376 471h101l351 -471l-378 -512h-113zM475 1178v79q0 15 4 19t19 4h59v-80q0 -15 -3.5 -18.5t-18.5 -3.5h-60zM541 0v983h88v-983h-88zM647 512l351 471h102l-377 -471l416 -512h-114zM741 1178v79q0 15 4 19t19 4h59v-80q0 -15 -3.5 -18.5t-18.5 -3.5 h-60z" />
<glyph unicode="&#x4dd;" horiz-adv-x="1034" d="M31 0l336 359l-302 337h102l286 -338l-297 -358h-125zM430 932v80q0 15 4 18.5t19 3.5h59v-80q0 -15 -4 -18.5t-19 -3.5h-59zM471 0v696h82v-696h-82zM582 358l285 338h102l-301 -337l336 -359h-126zM696 932v80q0 15 4 18.5t19 3.5h59v-80q0 -15 -3.5 -18.5t-18.5 -3.5 h-60z" />
<glyph unicode="&#x4de;" horiz-adv-x="686" d="M61 16v96q41 -26 101.5 -41.5t113.5 -15.5q120 0 193.5 58t73.5 153q0 112 -65 180t-171 68h-102v68h51q110 0 178 54t68 142q0 67 -62.5 108.5t-163.5 41.5q-117 0 -194 -55v94q89 26 194 26q138 0 223 -59t85 -156q0 -76 -57.5 -137t-148.5 -87q111 -20 184 -101 t73 -187q0 -124 -99 -200t-260 -76q-123 0 -215 26zM154 1178v79q0 15 3.5 19t18.5 4h60v-80q0 -15 -4 -18.5t-19 -3.5h-59zM420 1178v79q0 15 3.5 19t18.5 4h60v-80q0 -15 -4 -18.5t-19 -3.5h-59z" />
<glyph unicode="&#x4df;" horiz-adv-x="614" d="M61 16v90q77 -51 195 -51q97 0 156 38.5t59 101.5q0 64 -56.5 102.5t-148.5 38.5h-94v65h64q88 0 141 35t53 92q0 51 -53 82t-141 31q-51 0 -86 -11t-78 -40v90q80 27 164 27q120 0 193 -49.5t73 -129.5q0 -53 -48 -95.5t-124 -60.5q100 -12 166.5 -62t66.5 -115 q0 -92 -84.5 -148.5t-222.5 -56.5q-118 0 -195 26zM113 932v80q0 15 3.5 18.5t18.5 3.5h60v-80q0 -15 -4 -18.5t-19 -3.5h-59zM379 932v80q0 15 3.5 18.5t18.5 3.5h60v-80q0 -15 -4 -18.5t-19 -3.5h-59z" />
<glyph unicode="&#x4e0;" horiz-adv-x="2048" d="M129 385v229h279v-229h-279z" />
<glyph unicode="&#x4e1;" horiz-adv-x="2048" d="M129 385v229h279v-229h-279z" />
<glyph unicode="&#x4e2;" horiz-adv-x="870" d="M113 0v983h77v-847l496 847h72v-983h-78v846l-496 -846h-71zM256 1147v49q0 15 4 19t19 4h346v-50q0 -15 -4 -18.5t-19 -3.5h-346z" />
<glyph unicode="&#x4e3;" d="M102 0v696h82v-579l414 579h78v-696h-82v569l-414 -569h-78zM225 901v49q0 15 4 19t19 4h346v-49q0 -15 -4 -19t-19 -4h-346z" />
<glyph unicode="&#x4e4;" horiz-adv-x="870" d="M113 0v983h77v-847l496 847h72v-983h-78v846l-496 -846h-71zM266 1178v79q0 15 4 19t19 4h59v-80q0 -15 -3.5 -18.5t-18.5 -3.5h-60zM532 1178v79q0 15 4 19t19 4h59v-80q0 -15 -3.5 -18.5t-18.5 -3.5h-60z" />
<glyph unicode="&#x4e5;" d="M102 0v696h82v-579l414 579h78v-696h-82v569l-414 -569h-78zM236 932v80q0 15 3.5 18.5t18.5 3.5h59v-80q0 -15 -3.5 -18.5t-18.5 -3.5h-59zM502 932v80q0 15 3.5 18.5t18.5 3.5h60v-80q0 -15 -4 -18.5t-19 -3.5h-59z" />
<glyph unicode="&#x4e6;" horiz-adv-x="917" d="M61 492q0 225 109.5 363t288.5 138t288 -137.5t109 -363.5t-109 -364t-288 -138t-288.5 138t-109.5 364zM154 492q0 -196 84 -315.5t221 -119.5t221 119.5t84 315.5t-84 315t-221 119t-221 -119t-84 -315zM307 1178v79q0 15 4 19t19 4h59v-80q0 -15 -3.5 -18.5 t-18.5 -3.5h-60zM573 1178v79q0 15 4 19t19 4h59v-80q0 -15 -3.5 -18.5t-18.5 -3.5h-60z" />
<glyph unicode="&#x4e7;" horiz-adv-x="737" d="M51 348q0 161 87.5 260t230.5 99q142 0 229.5 -99t87.5 -260t-87 -259.5t-230 -98.5t-230.5 98.5t-87.5 259.5zM137 348q0 -133 64 -215t168 -82t167.5 82t63.5 215t-63.5 215t-167.5 82t-168 -82t-64 -215zM215 932v80q0 15 4 18.5t19 3.5h59v-80q0 -15 -4 -18.5 t-19 -3.5h-59zM481 932v80q0 15 4 18.5t19 3.5h59v-80q0 -15 -3.5 -18.5t-18.5 -3.5h-60z" />
<glyph unicode="&#x4e8;" horiz-adv-x="917" d="M61 492q0 225 109.5 363t288.5 138t288 -137.5t109 -363.5t-109 -364t-288 -138t-288.5 138t-109.5 364zM154 459q8 -182 91 -292t214 -110t213.5 110t90.5 292h-609zM154 524h609q-8 182 -90.5 292t-213.5 110t-214 -110t-91 -292z" />
<glyph unicode="&#x4e9;" horiz-adv-x="737" d="M51 348q0 161 87.5 260t230.5 99q142 0 229.5 -99t87.5 -260t-87 -259.5t-230 -98.5t-230.5 98.5t-87.5 259.5zM138 315q8 -120 71 -192t160 -72t159.5 72t70.5 192h-461zM138 381h461q-8 120 -70.5 192t-159.5 72t-160 -72t-71 -192z" />
<glyph unicode="&#x4ea;" horiz-adv-x="917" d="M61 492q0 225 109.5 363t288.5 138t288 -137.5t109 -363.5t-109 -364t-288 -138t-288.5 138t-109.5 364zM154 459q8 -182 91 -292t214 -110t213.5 110t90.5 292h-609zM154 524h609q-8 182 -90.5 292t-213.5 110t-214 -110t-91 -292zM285 1147v80q0 15 3.5 18.5t18.5 3.5 h60v-80q0 -15 -4 -18.5t-19 -3.5h-59zM551 1147v80q0 15 3.5 18.5t18.5 3.5h60v-80q0 -15 -4 -18.5t-19 -3.5h-59z" />
<glyph unicode="&#x4eb;" horiz-adv-x="737" d="M51 348q0 161 87.5 260t230.5 99q142 0 229.5 -99t87.5 -260t-87 -259.5t-230 -98.5t-230.5 98.5t-87.5 259.5zM138 315q8 -120 71 -192t160 -72t159.5 72t70.5 192h-461zM138 381h461q-8 120 -70.5 192t-159.5 72t-160 -72t-71 -192zM195 932v80q0 15 3.5 18.5t18.5 3.5 h59v-80q0 -15 -3.5 -18.5t-18.5 -3.5h-59zM461 932v80q0 15 3.5 18.5t18.5 3.5h60v-80q0 -15 -4 -18.5t-19 -3.5h-59z" />
<glyph unicode="&#x4ec;" horiz-adv-x="757" d="M72 20v94q36 -24 92.5 -39.5t101.5 -15.5q145 0 237 109.5t100 290.5h-388v65h388q-8 181 -100 290.5t-237 109.5q-45 0 -101.5 -15.5t-92.5 -39.5v94q91 30 194 30q194 0 312 -137.5t118 -363.5t-118.5 -364t-311.5 -138q-102 0 -194 30zM147 1178v79q0 15 4 19t19 4h59 v-80q0 -15 -3.5 -18.5t-18.5 -3.5h-60zM414 1178v79q0 15 3.5 19t18.5 4h60v-80q0 -15 -4 -18.5t-19 -3.5h-59z" />
<glyph unicode="&#x4ed;" horiz-adv-x="614" d="M61 16v90q77 -51 175 -51q102 0 167 71t73 189h-322v66h322q-8 118 -73 189t-167 71q-98 0 -175 -51v90q80 27 175 27q148 0 237.5 -99t89.5 -260t-89.5 -259.5t-237.5 -98.5q-98 0 -175 26zM123 932v80q0 15 3.5 18.5t18.5 3.5h60v-80q0 -15 -4 -18.5t-19 -3.5h-59z M389 932v80q0 15 4 18.5t19 3.5h59v-80q0 -15 -3.5 -18.5t-18.5 -3.5h-60z" />
<glyph unicode="&#x4ee;" d="M31 983h110l273 -604l223 604h111l-302 -715q-64 -150 -158.5 -214t-246.5 -64v92q148 0 218.5 43t121.5 169zM240 1147v49q0 15 3.5 19t18.5 4h346v-50q0 -15 -3.5 -18.5t-18.5 -3.5h-346z" />
<glyph unicode="&#x4ef;" horiz-adv-x="737" d="M0 -328q60 0 109 18t83.5 45t66.5 74t52.5 90t47.5 109l-328 688h98l260 -610l219 610h99l-297 -714q-39 -92 -75 -156t-85 -121.5t-111.5 -86t-138.5 -28.5v82zM199 901v49q0 15 3.5 19t18.5 4h346v-49q0 -15 -3.5 -19t-18.5 -4h-346z" />
<glyph unicode="&#x4f0;" d="M31 983h110l273 -604l223 604h111l-302 -715q-64 -150 -158.5 -214t-246.5 -64v92q148 0 218.5 43t121.5 169zM250 1178v79q0 15 3.5 19t18.5 4h60v-80q0 -15 -4 -18.5t-19 -3.5h-59zM516 1178v79q0 15 4 19t19 4h59v-80q0 -15 -4 -18.5t-19 -3.5h-59z" />
<glyph unicode="&#x4f1;" horiz-adv-x="737" d="M0 -328q60 0 109 18t83.5 45t66.5 74t52.5 90t47.5 109l-328 688h98l260 -610l219 610h99l-297 -714q-39 -92 -75 -156t-85 -121.5t-111.5 -86t-138.5 -28.5v82zM209 932v80q0 15 3.5 18.5t18.5 3.5h60v-80q0 -15 -4 -18.5t-19 -3.5h-59zM475 932v80q0 15 4 18.5t19 3.5 h59v-80q0 -15 -3.5 -18.5t-18.5 -3.5h-60z" />
<glyph unicode="&#x4f2;" d="M31 983h110l273 -604l223 604h111l-302 -715q-64 -150 -158.5 -214t-246.5 -64v92q148 0 218.5 43t121.5 169zM197 1122l188 203h59v-74l-237 -143zM483 1122l189 203h59v-74l-237 -143z" />
<glyph unicode="&#x4f3;" horiz-adv-x="737" d="M0 -328q60 0 109 18t83.5 45t66.5 74t52.5 90t47.5 109l-328 688h98l260 -610l219 610h99l-297 -714q-39 -92 -75 -156t-85 -121.5t-111.5 -86t-138.5 -28.5v82zM156 877l188 202h59v-73l-237 -144zM442 877l189 202h59v-73l-237 -144z" />
<glyph unicode="&#x4f4;" horiz-adv-x="819" d="M92 614v369h88v-369q0 -60 41 -96.5t107 -36.5h290v502h89v-983h-89v418h-290q-106 0 -171 54t-65 142zM246 1178v79q0 15 3.5 19t18.5 4h60v-80q0 -15 -4 -18.5t-19 -3.5h-59zM512 1178v79q0 15 4 19t19 4h59v-80q0 -15 -4 -18.5t-19 -3.5h-59z" />
<glyph unicode="&#x4f5;" horiz-adv-x="737" d="M82 471v225h82v-225q0 -65 39 -104t104 -39h246v368h82v-696h-82v266h-246q-101 0 -163 56.5t-62 148.5zM195 932v80q0 15 3.5 18.5t18.5 3.5h59v-80q0 -15 -3.5 -18.5t-18.5 -3.5h-59zM461 932v80q0 15 3.5 18.5t18.5 3.5h60v-80q0 -15 -4 -18.5t-19 -3.5h-59z" />
<glyph unicode="&#x4f8;" horiz-adv-x="1034" d="M113 0v983h88v-430h168q157 0 252.5 -76t95.5 -201q0 -124 -95.5 -200t-252.5 -76h-256zM201 66h178q111 0 178.5 57.5t67.5 152.5t-68 153t-178 58h-178v-421zM375 1178v79q0 15 3.5 19t18.5 4h60v-80q0 -15 -4 -18.5t-19 -3.5h-59zM641 1178v79q0 15 4 19t19 4h59v-80 q0 -15 -4 -18.5t-19 -3.5h-59zM834 0v983h88v-983h-88z" />
<glyph unicode="&#x4f9;" horiz-adv-x="911" d="M102 0v696h82v-245h144q129 0 207.5 -62.5t78.5 -163.5t-78.5 -163t-207.5 -62h-226zM184 61h144q90 0 145 45t55 119t-55 119t-145 45h-144v-328zM358 932v80q0 15 4 18.5t19 3.5h59v-80q0 -15 -3.5 -18.5t-18.5 -3.5h-60zM625 932v80q0 15 3.5 18.5t18.5 3.5h60v-80 q0 -15 -4 -18.5t-19 -3.5h-59zM727 0v696h82v-696h-82z" />
<glyph unicode="&#x2000;" horiz-adv-x="717" />
<glyph unicode="&#x2001;" horiz-adv-x="1434" />
<glyph unicode="&#x2002;" horiz-adv-x="717" />
<glyph unicode="&#x2003;" horiz-adv-x="1434" />
<glyph unicode="&#x2004;" horiz-adv-x="478" />
<glyph unicode="&#x2005;" horiz-adv-x="358" />
<glyph unicode="&#x2006;" horiz-adv-x="239" />
<glyph unicode="&#x2007;" horiz-adv-x="239" />
<glyph unicode="&#x2008;" horiz-adv-x="179" />
<glyph unicode="&#x2009;" horiz-adv-x="286" />
<glyph unicode="&#x200a;" horiz-adv-x="79" />
<glyph unicode="&#x2010;" horiz-adv-x="491" d="M41 410v71h410v-71h-410z" />
<glyph unicode="&#x2011;" horiz-adv-x="491" d="M41 410v71h410v-71h-410z" />
<glyph unicode="&#x2012;" horiz-adv-x="491" d="M41 410v71h410v-71h-410z" />
<glyph unicode="&#x2013;" horiz-adv-x="942" d="M41 430v72h860v-72h-860z" />
<glyph unicode="&#x2014;" horiz-adv-x="1884" d="M41 430v72h1802v-72h-1802z" />
<glyph unicode="&#x2018;" horiz-adv-x="296" d="M72 825v54q0 39 39 98l88 139l20 -10l-72 -156l37 -12v-72q0 -29 -6 -35t-35 -6h-71z" />
<glyph unicode="&#x2019;" horiz-adv-x="296" d="M57 825l72 156l-37 12v72q0 29 6 35t35 6h72v-53q0 -40 -39 -99l-88 -139z" />
<glyph unicode="&#x201a;" horiz-adv-x="296" d="M57 -168l72 156l-37 12v72q0 29 6 35t35 6h72v-54q0 -39 -39 -98l-88 -139z" />
<glyph unicode="&#x201c;" horiz-adv-x="501" d="M72 825v54q0 39 39 98l88 139l20 -10l-72 -156l37 -12v-72q0 -29 -6 -35t-35 -6h-71zM276 825v54q0 39 39 98l89 139l20 -10l-72 -156l37 -12v-72q0 -29 -6 -35t-35 -6h-72z" />
<glyph unicode="&#x201d;" horiz-adv-x="501" d="M57 825l72 156l-37 12v72q0 29 6 35t35 6h72v-53q0 -40 -39 -99l-88 -139zM262 825l72 156l-37 12v72q0 29 6 35t35 6h72v-53q0 -40 -39 -99l-89 -139z" />
<glyph unicode="&#x201e;" horiz-adv-x="501" d="M57 -168l72 156l-37 12v72q0 29 6 35t35 6h72v-54q0 -39 -39 -98l-88 -139zM262 -168l72 156l-37 12v72q0 29 6 35t35 6h72v-54q0 -39 -39 -98l-89 -139z" />
<glyph unicode="&#x2026;" horiz-adv-x="716" d="M102 -10v90q0 15 4 18.5t19 3.5h70v-90q0 -15 -4 -18.5t-19 -3.5h-70zM317 -10v90q0 15 4 18.5t19 3.5h70v-90q0 -15 -4 -18.5t-19 -3.5h-70zM532 -10v90q0 15 4 18.5t19 3.5h70v-90q0 -15 -4 -18.5t-19 -3.5h-70z" />
<glyph unicode="&#x202f;" horiz-adv-x="286" />
<glyph unicode="&#x2039;" horiz-adv-x="376" d="M41 369l225 270l19 -92l-154 -178l154 -179l-19 -92z" />
<glyph unicode="&#x203a;" horiz-adv-x="376" d="M92 190l154 179l-154 178l19 92l225 -270l-225 -271z" />
<glyph unicode="&#x205f;" horiz-adv-x="358" />
<glyph unicode="&#x20ac;" horiz-adv-x="901" d="M31 344l22 66h126q-5 43 -5 82q0 38 2 57h-110l22 65h97q33 175 153 277t297 102q103 0 194 -30l-22 -81q-84 42 -172 42q-137 0 -232.5 -83.5t-124.5 -226.5h455l-18 -65h-446q-3 -29 -3 -57q0 -39 5 -82h407l-19 -66h-375q35 -132 127.5 -208.5t223.5 -76.5 q45 0 101.5 15.5t92.5 39.5v-94q-91 -30 -194 -30q-170 0 -288 95t-157 259h-159z" />
<glyph unicode="&#x2122;" horiz-adv-x="1044" d="M473 385v125h137v-125h-137z" />
</font>
</defs>
</svg>
